<svg width="350" height="73" viewBox="0 0 350 73" fill="none" xmlns="http://www.w3.org/2000/svg">
<path d="M18.2 58V16H39.68C45.2 16 49.32 17.02 52.04 19.06C54.76 21.06 56.12 23.7 56.12 26.98C56.12 29.14 55.54 31.04 54.38 32.68C53.26 34.28 51.66 35.56 49.58 36.52C47.54 37.44 45.1 37.9 42.26 37.9L43.46 35.02C46.42 35.02 49 35.48 51.2 36.4C53.4 37.28 55.1 38.58 56.3 40.3C57.54 41.98 58.16 44.04 58.16 46.48C58.16 50.12 56.68 52.96 53.72 55C50.8 57 46.52 58 40.88 58H18.2ZM29.96 49.42H39.92C41.96 49.42 43.5 49.08 44.54 48.4C45.62 47.68 46.16 46.6 46.16 45.16C46.16 43.72 45.62 42.66 44.54 41.98C43.5 41.26 41.96 40.9 39.92 40.9H29.12V32.68H38.12C40.12 32.68 41.62 32.34 42.62 31.66C43.62 30.98 44.12 29.96 44.12 28.6C44.12 27.24 43.62 26.24 42.62 25.6C41.62 24.92 40.12 24.58 38.12 24.58H29.96V49.42Z" fill="white"/>
<path d="M97.6313 19.3676L75.9521 29.3959L81.75 31.9626C82.6199 32.3293 83.5537 32.5201 84.4977 32.524C85.4417 32.528 86.3771 32.3449 87.25 31.9855L104.552 24.1801C103.377 22.5026 101.758 21.1853 99.8771 20.3759L97.6313 19.3676ZM69.1229 20.3759L79.1833 15.9071C80.859 15.1704 82.6695 14.7899 84.5 14.7899C86.3305 14.7899 88.141 15.1704 89.8167 15.9071L93.4604 17.5113L71.8042 27.5259L64.4479 24.1801C65.6228 22.5026 67.2416 21.1853 69.1229 20.3759ZM105.973 27.2967C106.175 28.0561 106.276 28.8391 106.271 29.6251V43.4667C106.23 45.4668 105.602 47.4108 104.466 49.0569C103.329 50.7031 101.733 51.9786 99.8771 52.7251L89.7938 57.1938C88.6614 57.7127 87.4554 58.0528 86.2188 58.2021V35.8355C87.0539 35.6963 87.8694 35.4578 88.6479 35.1251L105.973 27.2967ZM63.0271 27.2967L80.3521 35.1251C81.1306 35.4578 81.9461 35.6963 82.7813 35.8355V58.2021C81.5379 58.0499 80.3248 57.7099 79.1833 57.1938L69.1229 52.7251C67.2669 51.9786 65.6712 50.7031 64.5344 49.0569C63.3976 47.4108 62.7698 45.4668 62.7292 43.4667V29.6251C62.7245 28.8391 62.8247 28.0561 63.0271 27.2967Z" fill="#787BD2"/>
<path d="M110.88 58L129.24 32.5L129.18 40.96L111.54 16H124.92L136.2 32.26L130.5 32.32L141.6 16H154.44L136.8 40.48V32.08L155.4 58H141.72L130.26 40.9H135.72L124.44 58H110.88ZM158.149 58V16H177.349C181.189 16 184.489 16.62 187.249 17.86C190.049 19.1 192.209 20.9 193.729 23.26C195.249 25.58 196.009 28.34 196.009 31.54C196.009 34.7 195.249 37.44 193.729 39.76C192.209 42.08 190.049 43.88 187.249 45.16C184.489 46.4 181.189 47.02 177.349 47.02H164.749L170.029 41.86V58H158.149ZM170.029 43.12L164.749 37.66H176.629C179.109 37.66 180.949 37.12 182.149 36.04C183.389 34.96 184.009 33.46 184.009 31.54C184.009 29.58 183.389 28.06 182.149 26.98C180.949 25.9 179.109 25.36 176.629 25.36H164.749L170.029 19.9V43.12ZM212.722 32.26H232.222V41.14H212.722V32.26ZM213.562 48.82H235.522V58H201.802V16H234.742V25.18H213.562V48.82ZM242.114 58V16H251.894L275.054 43.96H270.434V16H282.074V58H272.294L249.134 30.04H253.754V58H242.114ZM290.454 58V16H310.314C314.954 16 319.034 16.86 322.554 18.58C326.074 20.3 328.814 22.72 330.774 25.84C332.774 28.96 333.774 32.68 333.774 37C333.774 41.28 332.774 45 330.774 48.16C328.814 51.28 326.074 53.7 322.554 55.42C319.034 57.14 314.954 58 310.314 58H290.454ZM302.334 48.52H309.834C312.234 48.52 314.314 48.08 316.074 47.2C317.874 46.28 319.274 44.96 320.274 43.24C321.274 41.48 321.774 39.4 321.774 37C321.774 34.56 321.274 32.48 320.274 30.76C319.274 29.04 317.874 27.74 316.074 26.86C314.314 25.94 312.234 25.48 309.834 25.48H302.334V48.52Z" fill="white"/>
</svg>
