<svg width="300" height="300" viewBox="0 0 300 300" fill="none" xmlns="http://www.w3.org/2000/svg">
<path d="M240.473 31.6338L91.1057 100.935L131.053 118.671C137.046 121.206 143.48 122.524 149.984 122.551C156.488 122.579 162.933 121.314 168.947 118.83L288.157 64.8905C280.062 53.2982 268.909 44.1954 255.947 38.6018L240.473 31.6338ZM44.0534 38.6018L113.369 7.72055C124.914 2.62912 137.388 0 150 0C162.612 0 175.086 2.62912 186.631 7.72055L211.736 18.8061L62.5269 88.0119L11.8431 64.8905C19.9383 53.2982 31.0915 44.1954 44.0534 38.6018ZM297.946 86.4282C299.341 91.6761 300.031 97.0872 299.999 102.518V198.171C299.719 211.993 295.393 225.427 287.561 236.802C279.728 248.178 268.735 256.993 255.947 262.151L186.473 293.032C178.671 296.618 170.362 298.968 161.842 300V145.435C167.596 144.474 173.215 142.826 178.579 140.526L297.946 86.4282ZM2.05371 86.4282L121.421 140.526C126.785 142.826 132.404 144.474 138.158 145.435V300C129.591 298.948 121.233 296.598 113.369 293.032L44.0534 262.151C31.2654 256.993 20.2715 248.178 12.4391 236.802C4.60663 225.427 0.281311 211.993 0.00109863 198.171V102.518C-0.0311279 97.0872 0.659149 91.6761 2.05371 86.4282Z" fill="#787BD2"/>
</svg>
