<svg width="455" height="378" viewBox="0 0 455 378" fill="none" xmlns="http://www.w3.org/2000/svg">
<path d="M66.6302 342.896C155.497 389.316 299.513 389.316 388.358 342.896C477.204 296.476 477.224 221.243 388.358 174.824C299.492 128.404 155.476 128.414 66.6302 174.824C-22.2153 221.233 -22.2048 296.487 66.6302 342.896Z" fill="#0000000"/>
<path d="M40.2721 268.896H44.015C45.7305 263.168 46.855 257.279 47.371 251.322C48.1865 240.292 42.844 223.407 33.0583 217.751C23.2725 212.095 17.9719 219.089 21.2547 225.07C24.5375 231.05 35.6093 248.06 35.7556 262.697L40.2721 268.896Z" fill="#575BC7"/>
<path d="M39.3752 268.896H40.4207C41.4422 261.673 41.4422 254.342 40.4207 247.119C38.727 232.806 34.0223 226.157 29.6522 221.536C29.5565 221.435 29.4246 221.375 29.2854 221.372C29.1462 221.368 29.0111 221.419 28.9099 221.515C28.8087 221.61 28.7496 221.742 28.7457 221.882C28.7418 222.021 28.7933 222.156 28.889 222.257C33.1441 226.742 37.7233 233.224 39.3438 247.234C40.3795 254.417 40.3901 261.71 39.3752 268.896Z" fill="white"/>
<path d="M40.5759 268.897C38.6522 259.822 29.9119 249.032 21.663 247.171C12.0968 245.08 7.44442 250.13 8.81401 254.49C10.1836 258.849 17.7425 260.878 25.0818 264.296C27.5531 265.44 29.8121 266.996 31.7625 268.897H40.5759Z" fill="#575BC7"/>
<path d="M37.0989 268.896H38.2175C34.1715 258.724 24.9712 251.468 17.4437 250.799C17.3756 250.792 17.3067 250.798 17.2411 250.818C17.1755 250.838 17.1146 250.871 17.062 250.915C17.0094 250.959 16.9661 251.013 16.9346 251.074C16.9032 251.135 16.8844 251.201 16.8792 251.27C16.8704 251.338 16.8759 251.407 16.8952 251.474C16.9145 251.54 16.9473 251.601 16.9914 251.654C17.0356 251.707 17.0902 251.751 17.1518 251.782C17.2134 251.812 17.2808 251.83 17.3496 251.834C24.4589 252.472 33.1469 259.288 37.0989 268.896Z" fill="white"/>
<path d="M378.075 173.245L385.906 177.353L386.564 172.45C382.686 161.514 385.874 149.115 390.067 143.95C394.259 138.785 393.454 134.99 391.938 133.297C390.422 131.603 384.672 130.317 378.984 136.966C373.297 143.616 371.99 151.687 372.942 159.831C373.548 164.923 376.224 170.15 378.075 173.245Z" fill="#575BC7"/>
<path opacity="0.2" d="M378.075 173.245L385.906 177.353L386.564 172.45C382.686 161.514 385.874 149.115 390.067 143.95C394.259 138.785 393.454 134.99 391.938 133.297C390.422 131.603 384.672 130.317 378.984 136.966C373.297 143.616 371.99 151.687 372.942 159.831C373.548 164.923 376.224 170.15 378.075 173.245Z" fill="black"/>
<path d="M381.299 174.938L382.846 175.754C382.831 175.725 382.813 175.697 382.794 175.67C380.577 173.036 377.713 160.134 378.915 152.575C380.4 143.239 385.188 137.144 389.286 134.562C389.336 134.531 389.38 134.49 389.414 134.442C389.448 134.394 389.472 134.34 389.485 134.282C389.498 134.225 389.499 134.165 389.488 134.107C389.477 134.049 389.455 133.994 389.422 133.945C389.356 133.845 389.253 133.775 389.136 133.749C389.019 133.724 388.896 133.745 388.795 133.809C384.613 136.496 379.553 142.8 378.016 152.44C376.908 159.476 379.124 170.621 381.299 174.938Z" fill="white"/>
<path d="M386.057 154.583C388.346 160.197 388.336 162.947 384.604 163.522C381.237 164.024 377.149 168.111 380.944 174.75L403.151 186.397C403.206 185.156 403.513 183.939 404.052 182.819C404.591 181.7 405.351 180.701 406.287 179.884C409.936 176.235 413.302 173.485 412.779 169.429C412.257 165.372 408.733 161.462 408.148 157.928C407.562 154.395 409.361 152.377 413.198 148.414C417.035 144.452 420.516 138.305 415.393 135.503C410.27 132.701 404.405 137.5 401.959 140.73C399.512 143.961 397.275 145.383 392.455 145.111C387.635 144.839 383.767 148.969 386.057 154.583Z" fill="#575BC7"/>
<path d="M392.339 180.731C392.234 163.501 404.581 143.323 411.45 139.246C411.551 139.181 411.624 139.08 411.653 138.963C411.683 138.847 411.666 138.723 411.607 138.618C411.544 138.518 411.445 138.445 411.33 138.416C411.215 138.387 411.093 138.403 410.99 138.462C404.027 142.643 391.575 162.832 391.439 180.281L392.339 180.731Z" fill="white"/>
<path d="M395.644 162.821C395.55 162.843 395.451 162.832 395.364 162.79C395.276 162.748 395.206 162.678 395.163 162.591C393.169 158.87 391.49 154.988 390.145 150.986C390.127 150.93 390.12 150.871 390.125 150.812C390.13 150.753 390.147 150.696 390.174 150.643C390.201 150.591 390.239 150.544 390.284 150.506C390.329 150.468 390.381 150.44 390.438 150.422C390.494 150.404 390.553 150.397 390.612 150.402C390.671 150.407 390.728 150.424 390.78 150.451C390.833 150.478 390.879 150.516 390.917 150.561C390.956 150.606 390.984 150.658 391.002 150.715C392.335 154.661 393.992 158.49 395.958 162.163C396.014 162.27 396.025 162.394 395.99 162.51C395.955 162.625 395.876 162.722 395.77 162.779L395.644 162.821Z" fill="white"/>
<path d="M392.68 173.381C392.594 173.397 392.506 173.388 392.424 173.357C392.343 173.326 392.272 173.272 392.22 173.203C392.151 173.103 392.124 172.98 392.146 172.86C392.167 172.741 392.235 172.635 392.335 172.565C396.837 169.413 402.299 167.934 407.776 168.383C407.896 168.398 408.004 168.46 408.077 168.556C408.151 168.651 408.184 168.771 408.168 168.89C408.153 169.01 408.091 169.118 407.996 169.191C407.901 169.265 407.781 169.298 407.661 169.282C402.417 168.883 397.193 170.289 392.857 173.266C392.806 173.315 392.746 173.355 392.68 173.381Z" fill="white"/>
<path d="M261.462 68.1313L235.984 53.4213L210.516 68.1313L235.984 82.8413L261.462 68.1313Z" fill="#0000000"/>
<path d="M235.983 112.272L261.461 97.5617V68.1312L235.983 82.8412V112.272Z" fill="#EBEBEB"/>
<path d="M240.896 102.507C240.761 102.509 240.628 102.477 240.509 102.413C240.347 102.294 240.217 102.136 240.133 101.953C240.049 101.77 240.013 101.568 240.028 101.367V98.2308V98.0008H240.185L242.632 96.5685V100.05C242.628 100.498 242.517 100.939 242.308 101.336C242.099 101.733 241.798 102.073 241.429 102.329C241.271 102.436 241.087 102.497 240.896 102.507ZM240.426 98.4608V101.346C240.408 101.481 240.425 101.617 240.474 101.743C240.524 101.869 240.604 101.981 240.708 102.068C240.793 102.106 240.886 102.12 240.978 102.109C241.07 102.098 241.157 102.062 241.231 102.005C241.544 101.787 241.801 101.498 241.983 101.162C242.165 100.826 242.265 100.452 242.276 100.071V99.8199H241.367L241.189 98.5967L240.426 98.4608ZM241.68 99.4227H242.245V97.2794L240.781 98.1263L241.503 98.2622L241.68 99.4227Z" fill="white"/>
<path d="M241.334 104.995C241.281 104.995 241.23 104.974 241.193 104.937C241.156 104.9 241.135 104.849 241.135 104.796V102.183C241.134 102.156 241.138 102.13 241.147 102.105C241.157 102.08 241.171 102.058 241.19 102.039C241.209 102.02 241.231 102.006 241.256 101.996C241.281 101.987 241.307 101.983 241.334 101.984C241.386 101.984 241.437 102.005 241.474 102.042C241.511 102.08 241.532 102.13 241.532 102.183V104.755C241.537 104.784 241.535 104.813 241.527 104.842C241.519 104.87 241.506 104.897 241.487 104.919C241.468 104.942 241.445 104.96 241.418 104.974C241.392 104.987 241.363 104.994 241.334 104.995Z" fill="white"/>
<path d="M240.198 105.654C240.163 105.654 240.129 105.644 240.099 105.625C240.07 105.607 240.046 105.58 240.03 105.549C240.016 105.528 240.006 105.504 240.002 105.478C239.998 105.453 239.999 105.426 240.006 105.402C240.013 105.377 240.025 105.354 240.042 105.334C240.059 105.314 240.08 105.299 240.103 105.288L242.372 103.971C242.395 103.957 242.42 103.949 242.446 103.946C242.472 103.942 242.498 103.944 242.523 103.951C242.549 103.957 242.572 103.969 242.593 103.985C242.614 104.001 242.631 104.021 242.644 104.044C242.668 104.09 242.674 104.144 242.66 104.194C242.646 104.244 242.615 104.287 242.571 104.316L240.292 105.622L240.198 105.654Z" fill="white"/>
<path d="M248.31 101.137C248.239 101.159 248.162 101.159 248.091 101.137C248.014 101.086 247.953 101.015 247.912 100.933C247.872 100.85 247.854 100.759 247.861 100.667V100.134C247.859 100.108 247.863 100.082 247.872 100.058C247.881 100.034 247.894 100.012 247.912 99.9937C247.929 99.9751 247.951 99.9603 247.974 99.9502C247.998 99.9401 248.023 99.9349 248.049 99.9349C248.075 99.9334 248.102 99.9375 248.126 99.947C248.151 99.9564 248.174 99.971 248.193 99.9898C248.211 100.009 248.226 100.031 248.235 100.056C248.245 100.081 248.249 100.107 248.247 100.134V100.573C248.247 100.656 248.247 100.698 248.247 100.698C248.247 100.698 248.31 100.698 248.373 100.698C248.495 100.588 248.591 100.452 248.654 100.3C248.717 100.148 248.746 99.9842 248.739 99.8199V96.3907C248.739 96.3651 248.744 96.3398 248.754 96.3162C248.764 96.2927 248.779 96.2715 248.798 96.2538C248.816 96.2362 248.838 96.2226 248.862 96.2138C248.886 96.2049 248.912 96.2011 248.937 96.2026C248.987 96.2026 249.035 96.2224 249.07 96.2577C249.106 96.293 249.126 96.3408 249.126 96.3907V99.8827C249.133 100.115 249.087 100.347 248.991 100.559C248.895 100.771 248.752 100.958 248.571 101.106C248.487 101.133 248.398 101.143 248.31 101.137Z" fill="white"/>
<path d="M246.236 98.0949V97.7603C246.285 96.8896 246.537 96.0425 246.973 95.2871C247.409 94.5317 248.016 93.8891 248.745 93.4111C249.006 93.1915 249.328 93.0575 249.668 93.0273C250.008 92.9971 250.349 93.0721 250.644 93.2422C250.94 93.4123 251.176 93.6692 251.321 93.9781C251.465 94.287 251.511 94.6329 251.453 94.9689V95.0839L246.236 98.0949ZM249.916 93.4529C249.57 93.4638 249.234 93.5686 248.944 93.7561C248.323 94.1657 247.796 94.703 247.4 95.3322C247.003 95.9614 246.745 96.6681 246.644 97.4049L251.056 94.8643C251.072 94.6176 251.025 94.3707 250.919 94.1473C250.813 93.924 250.651 93.7317 250.449 93.5888C250.287 93.4967 250.103 93.4498 249.916 93.4529Z" fill="white"/>
<path d="M255.302 97.1225C255.251 97.1225 255.202 97.1031 255.165 97.068C255.128 97.033 255.106 96.9851 255.103 96.9343V90.2641C255.103 90.2114 255.124 90.1609 255.161 90.1236C255.199 90.0864 255.249 90.0654 255.302 90.0654C255.355 90.0654 255.405 90.0864 255.442 90.1236C255.48 90.1609 255.501 90.2114 255.501 90.2641V96.9343C255.498 96.9851 255.476 97.033 255.439 97.068C255.402 97.1031 255.353 97.1225 255.302 97.1225Z" fill="white"/>
<path d="M254.765 91.7802H254.692C254.668 91.77 254.646 91.7551 254.627 91.7364C254.609 91.7177 254.595 91.6956 254.585 91.6713C254.575 91.647 254.57 91.621 254.571 91.5949C254.571 91.5687 254.577 91.5429 254.587 91.5189L255.287 89.9088L256.061 90.8079C256.078 90.8272 256.09 90.8494 256.098 90.8735C256.106 90.8976 256.109 90.9229 256.107 90.9482C256.105 90.9734 256.098 90.998 256.087 91.0206C256.075 91.0432 256.059 91.0633 256.04 91.0798C256.021 91.0962 255.999 91.1088 255.975 91.1166C255.951 91.1245 255.925 91.1275 255.9 91.1256C255.875 91.1237 255.85 91.1168 255.828 91.1053C255.805 91.0939 255.785 91.0781 255.768 91.0588L255.392 90.6407L254.942 91.6861C254.925 91.717 254.899 91.7423 254.867 91.7589C254.836 91.7756 254.8 91.783 254.765 91.7802Z" fill="white"/>
<path d="M257.151 96.0981C257.1 96.0954 257.052 96.0733 257.017 96.0364C256.982 95.9994 256.962 95.9504 256.962 95.8995V89.2293C256.956 89.2001 256.956 89.1698 256.962 89.1406C256.969 89.1114 256.982 89.084 257 89.0606C257.019 89.0371 257.043 89.0182 257.069 89.0051C257.096 88.9921 257.126 88.9854 257.156 88.9854C257.186 88.9854 257.215 88.9921 257.242 89.0051C257.269 89.0182 257.293 89.0371 257.312 89.0606C257.33 89.084 257.343 89.1114 257.35 89.1406C257.356 89.1698 257.356 89.2001 257.349 89.2293V95.8995C257.349 95.9522 257.328 96.0027 257.291 96.0399C257.254 96.0772 257.203 96.0981 257.151 96.0981Z" fill="white"/>
<path d="M256.581 90.7451H256.507C256.483 90.7348 256.462 90.7199 256.443 90.7012C256.425 90.6825 256.411 90.6604 256.401 90.6361C256.391 90.6118 256.386 90.5859 256.387 90.5597C256.387 90.5336 256.393 90.5077 256.403 90.4837L257.103 88.8737L257.877 89.7728C257.912 89.8096 257.931 89.8582 257.931 89.9087C257.931 89.9592 257.912 90.0078 257.877 90.0446C257.839 90.0799 257.788 90.0994 257.736 90.0994C257.684 90.0994 257.633 90.0799 257.595 90.0446L257.229 89.616L256.779 90.6614C256.758 90.693 256.728 90.7177 256.692 90.7325C256.657 90.7474 256.618 90.7517 256.581 90.7451Z" fill="white"/>
<path d="M235.981 112.272L210.503 97.5617L210.513 68.1312L235.981 82.8412V112.272Z" fill="#E0E0E0"/>
<path d="M224.63 76.2861L250.088 61.5656L247.213 59.9033L221.745 74.6238L224.63 76.2861Z" fill="white"/>
<path d="M214.371 85.0055L223.498 90.2329C224.023 90.5787 224.46 91.0424 224.774 91.5869C225.088 92.1315 225.271 92.7418 225.307 93.3694V98.9941C225.307 100.155 224.492 100.625 223.498 100.04L214.371 94.8121C213.846 94.4669 213.409 94.0034 213.094 93.4588C212.78 92.9141 212.598 92.3034 212.563 91.6757V86.051C212.563 84.8905 213.378 84.4305 214.371 85.0055Z" fill="#575BC7"/>
<path d="M213.673 86.4064L214.018 86.6155V92.857L213.673 92.6584V86.4064Z" fill="#575BC7"/>
<path d="M215.084 87.2218L215.68 87.5773V93.8188L215.084 93.4738V87.2218Z" fill="#575BC7"/>
<path d="M216.496 88.0374L216.841 88.236V94.488L216.496 94.2894V88.0374Z" fill="#575BC7"/>
<path d="M217.548 88.6437L218.249 89.0514V95.3034L217.548 94.8852V88.6437Z" fill="#575BC7"/>
<path d="M219.306 89.6683L219.662 89.867V96.119L219.306 95.9099V89.6683Z" fill="#575BC7"/>
<path d="M220.331 90.2432L221.062 90.6823V96.9238L220.32 96.4847L220.331 90.2432Z" fill="#575BC7"/>
<path d="M222.129 91.2993L222.474 91.498V97.7395L222.129 97.5409V91.2993Z" fill="#575BC7"/>
<path d="M222.938 91.7489L223.116 91.8535V98.095L222.938 98.0009V91.7489Z" fill="#575BC7"/>
<path d="M221.494 90.9542L221.662 91.0588V97.3003L221.494 97.2062V90.9542Z" fill="#575BC7"/>
<path d="M218.652 89.292L218.819 89.3861V95.6381L218.652 95.5335V89.292Z" fill="#575BC7"/>
<path d="M217.086 88.3927L217.264 88.4972V94.7492L217.086 94.6447V88.3927Z" fill="#575BC7"/>
<path d="M215.976 87.7761L216.154 87.8807V94.1327L215.976 94.0281V87.7761Z" fill="#575BC7"/>
<path d="M214.455 86.856L214.633 86.9605V93.2125L214.455 93.108V86.856Z" fill="#575BC7"/>
<path d="M223.541 92.1041L223.886 92.3028V98.5548L223.541 98.3562V92.1041Z" fill="#575BC7"/>
<path d="M227.49 63.2279L197.756 46.0714L168.033 63.2279L197.756 80.3948L227.49 63.2279Z" fill="#0000000"/>
<path d="M185.018 73.0345L214.751 55.878L211.866 54.2157L182.142 71.3721L185.018 73.0345Z" fill="white"/>
<path d="M197.76 134.331L227.494 117.175V63.2279L197.76 80.3948V134.331Z" fill="#EBEBEB"/>
<path d="M202.669 124.619C202.532 124.621 202.398 124.585 202.282 124.514C202.117 124.398 201.986 124.24 201.901 124.056C201.817 123.873 201.782 123.67 201.801 123.469V120.332V120.102H201.968L204.404 118.67V122.152C204.399 122.6 204.287 123.04 204.078 123.436C203.869 123.833 203.569 124.173 203.202 124.431C203.045 124.541 202.86 124.606 202.669 124.619ZM202.198 120.573V123.458C202.181 123.593 202.197 123.729 202.247 123.855C202.296 123.981 202.376 124.093 202.48 124.18C202.565 124.218 202.658 124.232 202.75 124.221C202.843 124.21 202.93 124.174 203.003 124.117C203.316 123.899 203.574 123.61 203.755 123.274C203.937 122.938 204.037 122.564 204.049 122.183V121.932H203.139L202.961 120.709L202.198 120.573ZM203.453 121.535H204.07V119.391L202.606 120.249L203.327 120.374L203.453 121.535Z" fill="white"/>
<path d="M203.111 127.065C203.058 127.065 203.008 127.044 202.97 127.007C202.933 126.97 202.912 126.919 202.912 126.867V124.243C202.912 124.217 202.917 124.192 202.927 124.168C202.937 124.144 202.952 124.123 202.971 124.106C202.989 124.088 203.011 124.074 203.036 124.066C203.06 124.057 203.085 124.053 203.111 124.054C203.162 124.054 203.211 124.074 203.248 124.109C203.285 124.144 203.307 124.192 203.309 124.243V126.867C203.307 126.919 203.285 126.968 203.248 127.004C203.212 127.041 203.163 127.063 203.111 127.065Z" fill="white"/>
<path d="M201.986 127.755C201.953 127.756 201.919 127.748 201.89 127.731C201.86 127.715 201.836 127.691 201.819 127.661C201.795 127.615 201.79 127.561 201.803 127.511C201.817 127.461 201.848 127.418 201.892 127.389L204.161 126.083C204.184 126.07 204.209 126.061 204.235 126.058C204.26 126.054 204.287 126.056 204.312 126.063C204.337 126.07 204.361 126.081 204.382 126.097C204.402 126.113 204.42 126.133 204.433 126.156C204.446 126.178 204.454 126.202 204.457 126.227C204.461 126.252 204.459 126.278 204.452 126.302C204.445 126.326 204.433 126.349 204.418 126.369C204.402 126.389 204.382 126.405 204.36 126.417L202.08 127.734C202.052 127.751 202.019 127.758 201.986 127.755Z" fill="white"/>
<path d="M210.088 123.207C210.011 123.208 209.936 123.19 209.868 123.155C209.792 123.104 209.73 123.033 209.69 122.951C209.649 122.868 209.632 122.776 209.638 122.685V122.141C209.638 122.115 209.643 122.09 209.653 122.066C209.663 122.043 209.678 122.022 209.697 122.004C209.715 121.986 209.737 121.973 209.761 121.964C209.785 121.955 209.811 121.951 209.837 121.953C209.861 121.953 209.886 121.958 209.909 121.967C209.931 121.977 209.952 121.99 209.97 122.008C209.987 122.025 210.001 122.046 210.01 122.069C210.02 122.092 210.025 122.116 210.025 122.141V122.685C210.025 122.758 210.025 122.8 210.025 122.81C210.025 122.821 210.088 122.81 210.15 122.81C210.272 122.698 210.368 122.56 210.431 122.406C210.495 122.253 210.524 122.087 210.516 121.921V118.44C210.516 118.387 210.537 118.337 210.574 118.3C210.612 118.262 210.662 118.241 210.715 118.241C210.767 118.244 210.816 118.266 210.852 118.302C210.889 118.339 210.911 118.388 210.913 118.44V121.921C210.923 122.156 210.877 122.389 210.779 122.601C210.681 122.814 210.533 123 210.349 123.145C210.268 123.185 210.178 123.207 210.088 123.207Z" fill="white"/>
<path d="M208.013 120.165V119.82C208.063 118.951 208.316 118.106 208.752 117.352C209.187 116.598 209.794 115.958 210.523 115.481C210.784 115.262 211.106 115.128 211.446 115.097C211.785 115.067 212.126 115.142 212.422 115.312C212.717 115.482 212.954 115.739 213.098 116.048C213.243 116.357 213.289 116.703 213.23 117.039V117.154L208.013 120.165ZM211.694 115.513C211.349 115.528 211.014 115.633 210.721 115.816C210.099 116.227 209.572 116.765 209.175 117.397C208.779 118.028 208.521 118.736 208.421 119.475L212.833 116.935C212.849 116.686 212.801 116.438 212.695 116.214C212.589 115.989 212.428 115.794 212.227 115.649C212.063 115.56 211.88 115.513 211.694 115.513Z" fill="white"/>
<path d="M217.118 119.193C217.065 119.193 217.015 119.172 216.978 119.135C216.94 119.097 216.919 119.047 216.919 118.994V112.324C216.919 112.271 216.94 112.221 216.978 112.183C217.015 112.146 217.065 112.125 217.118 112.125C217.171 112.125 217.221 112.146 217.259 112.183C217.296 112.221 217.317 112.271 217.317 112.324V118.994C217.317 119.047 217.296 119.097 217.259 119.135C217.221 119.172 217.171 119.193 217.118 119.193Z" fill="white"/>
<path d="M216.542 113.85H216.469C216.445 113.841 216.423 113.827 216.405 113.81C216.387 113.792 216.373 113.771 216.363 113.747C216.353 113.724 216.348 113.699 216.348 113.673C216.348 113.648 216.354 113.623 216.364 113.6L217.064 111.99L217.838 112.889C217.871 112.927 217.888 112.978 217.884 113.029C217.88 113.08 217.856 113.127 217.817 113.16C217.778 113.194 217.728 113.21 217.677 113.206C217.626 113.202 217.579 113.178 217.545 113.14L217.169 112.711L216.719 113.756C216.702 113.787 216.676 113.812 216.644 113.829C216.613 113.846 216.577 113.853 216.542 113.85Z" fill="white"/>
<path d="M218.93 118.158C218.88 118.158 218.832 118.138 218.797 118.103C218.762 118.067 218.742 118.02 218.742 117.97V111.299C218.741 111.274 218.744 111.248 218.753 111.224C218.762 111.2 218.776 111.178 218.793 111.16C218.811 111.141 218.832 111.126 218.856 111.116C218.879 111.106 218.905 111.101 218.93 111.101C218.957 111.099 218.983 111.103 219.008 111.113C219.033 111.122 219.055 111.137 219.074 111.156C219.093 111.174 219.107 111.197 219.117 111.222C219.126 111.246 219.13 111.273 219.129 111.299V117.97C219.129 117.995 219.124 118.021 219.114 118.044C219.103 118.068 219.089 118.089 219.07 118.107C219.051 118.124 219.029 118.138 219.005 118.147C218.981 118.155 218.956 118.159 218.93 118.158Z" fill="white"/>
<path d="M218.366 112.815H218.282C218.235 112.793 218.198 112.753 218.179 112.705C218.16 112.656 218.159 112.603 218.177 112.554L218.878 110.944L219.662 111.843C219.694 111.881 219.712 111.929 219.712 111.979C219.712 112.029 219.694 112.077 219.662 112.115C219.644 112.133 219.622 112.148 219.597 112.158C219.573 112.168 219.547 112.174 219.521 112.174C219.495 112.174 219.469 112.168 219.444 112.158C219.42 112.148 219.398 112.133 219.38 112.115L219.014 111.686L218.564 112.732C218.544 112.764 218.514 112.79 218.478 112.805C218.443 112.82 218.403 112.823 218.366 112.815Z" fill="white"/>
<path d="M197.756 134.331L168.033 117.175V63.2279L197.756 80.3948V134.331Z" fill="#E0E0E0"/>
<path d="M174.083 105.957L183.199 111.184C183.727 111.528 184.166 111.991 184.482 112.536C184.798 113.081 184.982 113.692 185.019 114.321V119.956C185.019 121.106 184.203 121.577 183.199 121.002L174.083 115.774C173.556 115.431 173.117 114.968 172.803 114.423C172.488 113.878 172.307 113.266 172.274 112.638V107.013C172.274 105.8 173.09 105.382 174.083 105.957Z" fill="#0000000"/>
<path d="M173.378 107.358L173.723 107.567V113.809L173.378 113.61V107.358Z" fill="#E0E0E0"/>
<path d="M174.789 108.173L175.385 108.529V114.781L174.789 114.425V108.173Z" fill="#E0E0E0"/>
<path d="M176.188 108.989L176.543 109.188L176.533 115.44L176.188 115.241V108.989Z" fill="#E0E0E0"/>
<path d="M177.253 109.595L177.943 110.003V116.255L177.253 115.837V109.595Z" fill="#E0E0E0"/>
<path d="M179.011 110.62L179.356 110.819V117.071L179.011 116.861V110.62Z" fill="#E0E0E0"/>
<path d="M180.031 111.195L180.774 111.634V117.875L180.031 117.436V111.195Z" fill="#E0E0E0"/>
<path d="M181.834 112.24L182.179 112.449V118.691L181.834 118.492V112.24Z" fill="#E0E0E0"/>
<path d="M182.643 112.7L182.821 112.805V119.057L182.643 118.952V112.7Z" fill="#E0E0E0"/>
<path d="M181.199 111.906L181.367 112.01V118.252L181.199 118.158V111.906Z" fill="#E0E0E0"/>
<path d="M178.357 110.244L178.524 110.338V116.59L178.357 116.485V110.244Z" fill="#E0E0E0"/>
<path d="M176.797 109.344L176.965 109.449V115.701L176.797 115.596V109.344Z" fill="#E0E0E0"/>
<path d="M175.681 108.727L175.859 108.832V115.084L175.681 114.979V108.727Z" fill="#E0E0E0"/>
<path d="M174.16 107.807L174.338 107.912V114.164L174.16 114.06V107.807Z" fill="#E0E0E0"/>
<path d="M183.252 113.056L183.597 113.255V119.507L183.252 119.308V113.056Z" fill="#E0E0E0"/>
<path d="M182.142 78.3352L185.018 79.9976V73.0346L182.142 71.3723V78.3352Z" fill="#F0F0F0"/>
<path d="M138.297 119.622L117.063 107.368L87.3401 124.525L108.574 136.788L138.297 119.622Z" fill="#0000000"/>
<path d="M108.578 185.822L138.302 168.665V119.622L108.578 136.788V185.822Z" fill="#EBEBEB"/>
<path d="M113.482 176.067C113.35 176.07 113.219 176.034 113.106 175.963C112.942 175.846 112.811 175.687 112.727 175.504C112.643 175.321 112.608 175.118 112.625 174.917V171.781V171.551H112.782L115.228 170.119V173.6C115.223 174.048 115.112 174.489 114.903 174.885C114.693 175.281 114.393 175.622 114.026 175.879C113.865 175.989 113.677 176.054 113.482 176.067ZM113.022 172.021V174.907C113.003 175.041 113.019 175.179 113.068 175.305C113.118 175.431 113.199 175.543 113.305 175.628C113.39 175.662 113.483 175.674 113.574 175.663C113.665 175.652 113.752 175.619 113.827 175.566C114.141 175.347 114.398 175.058 114.58 174.723C114.761 174.387 114.862 174.013 114.873 173.631V173.381H113.963L113.786 172.157L113.022 172.021ZM114.277 172.983H114.842V170.83L113.378 171.687L114.099 171.812L114.277 172.983Z" fill="white"/>
<path d="M113.929 178.555C113.877 178.555 113.826 178.535 113.789 178.497C113.752 178.46 113.731 178.41 113.731 178.357V175.733C113.731 175.707 113.736 175.682 113.746 175.658C113.756 175.635 113.771 175.613 113.789 175.596C113.808 175.578 113.83 175.564 113.854 175.556C113.878 175.547 113.904 175.543 113.929 175.544C113.979 175.544 114.027 175.564 114.062 175.6C114.098 175.635 114.118 175.683 114.118 175.733V178.357C114.118 178.408 114.098 178.457 114.063 178.494C114.028 178.531 113.98 178.553 113.929 178.555Z" fill="white"/>
<path d="M112.796 179.204C112.762 179.206 112.729 179.198 112.699 179.181C112.669 179.165 112.645 179.14 112.629 179.11C112.614 179.088 112.604 179.064 112.599 179.038C112.594 179.012 112.594 178.985 112.6 178.96C112.606 178.934 112.617 178.91 112.633 178.889C112.649 178.868 112.669 178.851 112.692 178.838L114.971 177.531C114.994 177.518 115.019 177.509 115.045 177.506C115.07 177.503 115.097 177.504 115.122 177.511C115.147 177.518 115.171 177.53 115.192 177.546C115.212 177.562 115.23 177.581 115.243 177.604C115.256 177.626 115.264 177.65 115.267 177.675C115.271 177.7 115.269 177.726 115.262 177.75C115.255 177.775 115.243 177.798 115.227 177.817C115.212 177.837 115.192 177.854 115.17 177.866L112.89 179.183C112.862 179.2 112.829 179.207 112.796 179.204Z" fill="white"/>
<path d="M120.906 174.698C120.83 174.698 120.754 174.68 120.686 174.645C120.61 174.594 120.549 174.524 120.508 174.441C120.468 174.358 120.45 174.267 120.456 174.175V173.631C120.456 173.581 120.476 173.533 120.512 173.498C120.547 173.463 120.595 173.443 120.645 173.443C120.67 173.442 120.696 173.445 120.72 173.454C120.744 173.463 120.766 173.477 120.785 173.494C120.803 173.512 120.818 173.533 120.828 173.557C120.838 173.58 120.843 173.606 120.843 173.631V174.175C120.843 174.248 120.843 174.29 120.843 174.3C120.843 174.311 120.906 174.3 120.969 174.3C121.089 174.186 121.183 174.048 121.246 173.895C121.309 173.742 121.339 173.577 121.335 173.412V169.93C121.328 169.901 121.328 169.871 121.334 169.842C121.341 169.812 121.354 169.785 121.372 169.761C121.391 169.738 121.415 169.719 121.442 169.706C121.469 169.693 121.498 169.686 121.528 169.686C121.558 169.686 121.588 169.693 121.615 169.706C121.641 169.719 121.665 169.738 121.684 169.761C121.702 169.785 121.715 169.812 121.722 169.842C121.728 169.871 121.728 169.901 121.722 169.93V173.412C121.73 173.645 121.685 173.876 121.588 174.088C121.492 174.301 121.348 174.488 121.167 174.635C121.086 174.675 120.997 174.697 120.906 174.698Z" fill="white"/>
<path d="M118.832 171.666V171.321C118.881 170.452 119.134 169.606 119.57 168.853C120.006 168.099 120.612 167.458 121.341 166.982C121.601 166.76 121.923 166.624 122.263 166.593C122.603 166.561 122.945 166.636 123.24 166.807C123.536 166.978 123.772 167.236 123.915 167.547C124.058 167.857 124.101 168.204 124.038 168.54V168.655L118.832 171.666ZM122.512 167.013C122.167 167.029 121.832 167.134 121.54 167.317C120.917 167.727 120.39 168.266 119.994 168.897C119.597 169.529 119.34 170.237 119.24 170.976L123.651 168.425C123.666 168.178 123.618 167.932 123.512 167.709C123.406 167.486 123.246 167.294 123.045 167.149C122.886 167.058 122.706 167.008 122.522 167.003L122.512 167.013Z" fill="white"/>
<path d="M127.943 170.683C127.89 170.683 127.84 170.662 127.802 170.625C127.765 170.588 127.744 170.537 127.744 170.484V163.814C127.744 163.762 127.765 163.711 127.802 163.674C127.84 163.637 127.89 163.616 127.943 163.616C127.995 163.616 128.046 163.637 128.083 163.674C128.12 163.711 128.141 163.762 128.141 163.814V170.484C128.141 170.537 128.12 170.588 128.083 170.625C128.046 170.662 127.995 170.683 127.943 170.683Z" fill="white"/>
<path d="M127.373 165.393H127.3C127.276 165.384 127.255 165.37 127.236 165.352C127.218 165.334 127.204 165.313 127.194 165.29C127.184 165.266 127.179 165.241 127.18 165.216C127.18 165.19 127.185 165.165 127.195 165.142L127.896 163.532L128.669 164.431C128.703 164.47 128.719 164.52 128.715 164.571C128.711 164.622 128.687 164.67 128.649 164.703C128.629 164.719 128.607 164.732 128.583 164.74C128.559 164.748 128.534 164.751 128.508 164.749C128.457 164.745 128.41 164.721 128.377 164.682L128 164.253L127.551 165.299C127.533 165.33 127.507 165.355 127.476 165.372C127.444 165.388 127.409 165.396 127.373 165.393Z" fill="white"/>
<path d="M129.752 169.648C129.701 169.648 129.652 169.629 129.615 169.594C129.578 169.559 129.556 169.511 129.553 169.46V162.79C129.553 162.737 129.574 162.687 129.611 162.649C129.649 162.612 129.699 162.591 129.752 162.591C129.778 162.59 129.805 162.594 129.83 162.603C129.854 162.613 129.877 162.627 129.896 162.646C129.914 162.665 129.929 162.687 129.938 162.712C129.948 162.737 129.952 162.763 129.951 162.79V169.46C129.951 169.486 129.945 169.511 129.935 169.534C129.925 169.558 129.91 169.579 129.892 169.597C129.873 169.614 129.851 169.628 129.827 169.637C129.803 169.646 129.777 169.65 129.752 169.648Z" fill="white"/>
<path d="M129.176 164.347C129.153 164.356 129.127 164.356 129.103 164.347C129.079 164.338 129.058 164.324 129.04 164.307C129.021 164.289 129.007 164.268 128.997 164.244C128.987 164.221 128.982 164.196 128.983 164.17C128.983 164.145 128.988 164.12 128.998 164.096L129.699 162.486L130.473 163.386C130.507 163.422 130.526 163.471 130.526 163.521C130.526 163.572 130.507 163.621 130.473 163.657C130.454 163.676 130.432 163.691 130.408 163.701C130.384 163.711 130.358 163.716 130.331 163.716C130.305 163.716 130.279 163.711 130.255 163.701C130.231 163.691 130.209 163.676 130.19 163.657L129.824 163.229L129.375 164.274C129.352 164.304 129.321 164.327 129.286 164.339C129.251 164.352 129.213 164.355 129.176 164.347Z" fill="white"/>
<path d="M108.574 185.822L87.3401 173.569V124.525L108.574 136.788V185.822Z" fill="#E0E0E0"/>
<path d="M97.2085 137.186L100.084 138.848V131.885L97.2085 130.223V137.186Z" fill="#0000000"/>
<path d="M100.084 131.885L129.817 114.718L126.932 113.056L97.2085 130.223L100.084 131.885Z" fill="white"/>
<path d="M100.08 161.305L61.8674 139.245L23.6444 161.305L61.8674 183.375L100.08 161.305Z" fill="#0000000"/>
<path d="M61.8671 212.795L100.08 190.736V161.305L61.8671 183.375V212.795Z" fill="#EBEBEB"/>
<path d="M66.7706 203.03C66.6383 203.028 66.5088 202.992 66.3942 202.926C66.2308 202.808 66.1007 202.649 66.0165 202.466C65.9322 202.283 65.8967 202.081 65.9133 201.88V198.744V198.514H66.0701L68.5166 197.071V200.563C68.5098 201.009 68.3973 201.448 68.1883 201.842C67.9793 202.236 67.6797 202.575 67.3142 202.832C67.1534 202.944 66.966 203.012 66.7706 203.03ZM66.3001 198.984V201.87C66.2815 202.003 66.2978 202.138 66.3473 202.263C66.3967 202.387 66.4778 202.497 66.5824 202.581C66.668 202.62 66.7624 202.636 66.856 202.626C66.9497 202.617 67.0392 202.583 67.1156 202.528C67.4275 202.309 67.6843 202.02 67.8657 201.684C68.0471 201.349 68.1482 200.976 68.1611 200.594V200.333H67.2201L67.0424 199.11L66.3001 198.984ZM67.5547 199.946H68.1611V197.803L66.7079 198.66L67.4293 198.786L67.5547 199.946Z" fill="white"/>
<path d="M67.2128 205.519C67.1881 205.519 67.1636 205.514 67.1408 205.504C67.118 205.495 67.0972 205.481 67.0798 205.464C67.0623 205.446 67.0484 205.425 67.039 205.403C67.0295 205.38 67.0246 205.355 67.0246 205.331V202.706C67.0178 202.677 67.0177 202.647 67.0242 202.618C67.0307 202.589 67.0438 202.561 67.0624 202.538C67.081 202.514 67.1047 202.495 67.1316 202.482C67.1586 202.469 67.1881 202.463 67.2181 202.463C67.248 202.463 67.2775 202.469 67.3045 202.482C67.3314 202.495 67.3551 202.514 67.3737 202.538C67.3923 202.561 67.4054 202.589 67.4119 202.618C67.4184 202.647 67.4183 202.677 67.4115 202.706V205.331C67.4115 205.356 67.4063 205.382 67.3962 205.405C67.3861 205.429 67.3713 205.45 67.3527 205.468C67.3341 205.485 67.3121 205.499 67.2881 205.508C67.264 205.516 67.2384 205.52 67.2128 205.519Z" fill="white"/>
<path d="M66.0699 206.167C66.028 206.164 65.9881 206.149 65.9557 206.122C65.9234 206.095 65.9004 206.059 65.8899 206.018C65.8795 205.978 65.8822 205.935 65.8976 205.896C65.913 205.857 65.9404 205.824 65.9758 205.801L68.2549 204.494C68.2757 204.479 68.2994 204.469 68.3244 204.464C68.3494 204.459 68.3752 204.46 68.4 204.466C68.4248 204.472 68.448 204.483 68.4681 204.499C68.4881 204.514 68.5046 204.534 68.5163 204.557C68.5313 204.579 68.5417 204.603 68.5466 204.629C68.5516 204.655 68.5511 204.681 68.5452 204.707C68.5393 204.732 68.5281 204.756 68.5123 204.777C68.4965 204.798 68.4765 204.816 68.4536 204.829L66.1744 206.167H66.0699Z" fill="white"/>
<path d="M74.1818 201.671C74.1129 201.687 74.0416 201.687 73.9727 201.671C73.8928 201.62 73.8283 201.549 73.7859 201.464C73.7435 201.379 73.725 201.285 73.7322 201.19V200.657C73.7322 200.604 73.7532 200.554 73.7904 200.517C73.8277 200.479 73.8782 200.458 73.9309 200.458C73.9836 200.458 74.0341 200.479 74.0713 200.517C74.1086 200.554 74.1295 200.604 74.1295 200.657V201.19C74.1152 201.234 74.1152 201.282 74.1295 201.326C74.1295 201.326 74.1923 201.326 74.2654 201.326C74.3834 201.211 74.476 201.073 74.5372 200.92C74.5984 200.766 74.6269 200.602 74.6209 200.438V196.956C74.6234 196.904 74.6452 196.855 74.6819 196.818C74.7186 196.782 74.7677 196.76 74.8196 196.757C74.8722 196.757 74.9228 196.778 74.96 196.816C74.9973 196.853 75.0182 196.903 75.0182 196.956V200.438C75.0268 200.67 74.9812 200.902 74.8851 201.114C74.7889 201.327 74.6448 201.514 74.4641 201.661C74.3721 201.686 74.2754 201.69 74.1818 201.671Z" fill="white"/>
<path d="M72.1206 198.629V198.284C72.166 197.414 72.4171 196.567 72.8533 195.813C73.2895 195.059 73.8983 194.419 74.6298 193.945C74.8894 193.723 75.2115 193.587 75.5517 193.556C75.8919 193.525 76.2334 193.6 76.5292 193.77C76.8251 193.941 77.0607 194.2 77.2035 194.51C77.3464 194.82 77.3896 195.167 77.3271 195.503V195.618L72.1206 198.629ZM75.8007 193.977C75.453 193.994 75.1152 194.098 74.818 194.28C74.1978 194.692 73.6727 195.231 73.2778 195.862C72.883 196.493 72.6274 197.201 72.5283 197.939L76.9298 195.388C76.9467 195.142 76.9009 194.896 76.7966 194.673C76.6924 194.45 76.5332 194.257 76.3339 194.112C76.1715 194.02 75.9874 193.973 75.8007 193.977Z" fill="white"/>
<path d="M81.2302 197.657C81.2038 197.658 81.1772 197.654 81.1525 197.645C81.1277 197.635 81.1052 197.621 81.0864 197.602C81.0676 197.583 81.0531 197.561 81.0436 197.536C81.0342 197.511 81.0301 197.485 81.0316 197.458V190.788C81.0248 190.759 81.0246 190.729 81.0312 190.699C81.0377 190.67 81.0508 190.643 81.0694 190.619C81.088 190.596 81.1116 190.577 81.1386 190.564C81.1655 190.551 81.1951 190.544 81.225 190.544C81.2549 190.544 81.2845 190.551 81.3114 190.564C81.3384 190.577 81.3621 190.596 81.3807 190.619C81.3993 190.643 81.4123 190.67 81.4189 190.699C81.4254 190.729 81.4252 190.759 81.4184 190.788V197.458C81.4198 197.484 81.416 197.509 81.4072 197.533C81.3984 197.557 81.3848 197.579 81.3671 197.598C81.3495 197.617 81.3283 197.631 81.3048 197.642C81.2812 197.652 81.2559 197.657 81.2302 197.657Z" fill="white"/>
<path d="M80.7061 192.314H80.6225C80.5984 192.304 80.5766 192.289 80.5586 192.27C80.5406 192.251 80.5267 192.229 80.5178 192.204C80.509 192.18 80.5054 192.153 80.5072 192.127C80.509 192.101 80.5162 192.076 80.5284 192.053L81.2184 190.443L82.0025 191.342C82.0372 191.382 82.0545 191.434 82.0505 191.487C82.0466 191.54 82.0218 191.589 81.9816 191.624C81.9414 191.659 81.8891 191.676 81.8361 191.672C81.7832 191.668 81.734 191.643 81.6993 191.603L81.3334 191.175L80.8838 192.22C80.8653 192.25 80.839 192.275 80.8078 192.291C80.7765 192.308 80.7414 192.316 80.7061 192.314Z" fill="white"/>
<path d="M83.0408 196.622C82.9881 196.622 82.9376 196.601 82.9003 196.563C82.8631 196.526 82.8422 196.476 82.8422 196.423V189.753C82.8422 189.7 82.8631 189.65 82.9003 189.612C82.9376 189.575 82.9881 189.554 83.0408 189.554C83.0935 189.554 83.144 189.575 83.1813 189.612C83.2185 189.65 83.2394 189.7 83.2394 189.753V196.423C83.2394 196.476 83.2185 196.526 83.1813 196.563C83.144 196.601 83.0935 196.622 83.0408 196.622Z" fill="white"/>
<path d="M82.4646 191.279H82.3914C82.3677 191.27 82.3462 191.256 82.328 191.238C82.3098 191.221 82.2954 191.199 82.2856 191.176C82.2758 191.152 82.2709 191.127 82.2711 191.102C82.2713 191.076 82.2767 191.051 82.2869 191.028L82.9874 189.408L83.761 190.307C83.7797 190.325 83.7945 190.347 83.8046 190.371C83.8147 190.396 83.8199 190.422 83.8199 190.448C83.8199 190.474 83.8147 190.5 83.8046 190.524C83.7945 190.549 83.7797 190.571 83.761 190.589C83.7435 190.607 83.7224 190.622 83.699 190.632C83.6756 190.642 83.6505 190.647 83.6251 190.647C83.5997 190.647 83.5746 190.642 83.5512 190.632C83.5279 190.622 83.5068 190.607 83.4892 190.589L83.1128 190.16L82.6633 191.206C82.6413 191.237 82.6106 191.26 82.5752 191.273C82.5398 191.286 82.5012 191.288 82.4646 191.279Z" fill="white"/>
<path d="M61.8674 212.795L23.6444 190.736V161.305L61.8674 183.375V212.795Z" fill="#E0E0E0"/>
<path d="M41.3152 178.472L44.1903 180.134V173.171L41.3152 171.509V178.472Z" fill="#0000000"/>
<path d="M44.1903 173.171L82.4133 151.111L79.5382 149.439L41.3152 171.509L44.1903 173.171Z" fill="white"/>
<path d="M29.7009 179.518L38.8176 184.745C39.345 185.089 39.7843 185.552 40.1003 186.097C40.4162 186.641 40.6 187.253 40.6367 187.881V193.517C40.6367 194.667 39.8212 195.137 38.8176 194.562L29.7009 189.335C29.1737 188.991 28.735 188.528 28.4207 187.983C28.1064 187.438 27.9253 186.826 27.8922 186.198V180.573C27.8922 179.403 28.7077 178.984 29.7009 179.518Z" fill="#0000000"/>
<path d="M28.9957 180.918L29.3407 181.117V187.369L28.9957 187.17V180.918Z" fill="#E0E0E0"/>
<path d="M30.4009 181.734L31.0073 182.089V188.331L30.4009 187.986V181.734Z" fill="#E0E0E0"/>
<path d="M31.8125 182.55L32.168 182.748L32.1575 189L31.8125 188.802V182.55Z" fill="#E0E0E0"/>
<path d="M32.8777 183.156L33.5782 183.564L33.5677 189.816L32.8777 189.397V183.156Z" fill="#E0E0E0"/>
<path d="M34.6292 184.18L34.9742 184.379V190.631L34.6292 190.422V184.18Z" fill="#E0E0E0"/>
<path d="M35.6495 184.755L36.3918 185.194V191.436L35.6495 190.997V184.755Z" fill="#E0E0E0"/>
<path d="M37.459 185.811L37.804 186.01V192.251L37.459 192.053V185.811Z" fill="#E0E0E0"/>
<path d="M38.261 186.261L38.4387 186.365V192.607L38.261 192.513V186.261Z" fill="#E0E0E0"/>
<path d="M36.8176 185.466L36.9849 185.56V191.812L36.8176 191.718V185.466Z" fill="#E0E0E0"/>
<path d="M33.9749 183.804L34.1421 183.898V190.15L33.9749 190.046V183.804Z" fill="#E0E0E0"/>
<path d="M32.4221 182.905L32.5999 183.009V189.251L32.4221 189.157V182.905Z" fill="#E0E0E0"/>
<path d="M31.2992 182.288L31.4769 182.393V188.645L31.2992 188.54V182.288Z" fill="#E0E0E0"/>
<path d="M29.7786 181.368L29.9563 181.473V187.714L29.7786 187.62V181.368Z" fill="#E0E0E0"/>
<path d="M38.8641 186.616L39.2091 186.826V193.067L38.8641 192.868V186.616Z" fill="#E0E0E0"/>
<path d="M91.5903 102.465L61.8671 85.2982L32.1334 102.465L61.8671 119.622L91.5903 102.465Z" fill="#0000000"/>
<path d="M61.8671 178.472L91.5903 161.305V102.465L61.8671 119.622V178.472Z" fill="#EBEBEB"/>
<path d="M66.7706 168.707C66.6392 168.708 66.5096 168.676 66.3942 168.613C66.2308 168.495 66.1007 168.337 66.0165 168.153C65.9322 167.97 65.8967 167.769 65.9133 167.568V164.431V164.201H66.0701L68.5166 162.769V166.25C68.5106 166.698 68.3985 167.138 68.1895 167.534C67.9805 167.931 67.6805 168.272 67.3142 168.529C67.1517 168.635 66.9642 168.697 66.7706 168.707ZM66.3001 164.661V167.557C66.2836 167.69 66.3007 167.825 66.3501 167.949C66.3994 168.073 66.4793 168.183 66.5824 168.268C66.668 168.307 66.7624 168.323 66.856 168.314C66.9497 168.305 67.0392 168.271 67.1156 168.216C67.4278 167.994 67.6845 167.703 67.8658 167.366C68.0472 167.028 68.1482 166.654 68.1611 166.271V166.02H67.2201L67.0424 164.797L66.3001 164.661ZM67.5547 165.623H68.1611V163.48L66.7079 164.337L67.4293 164.462L67.5547 165.623Z" fill="white"/>
<path d="M67.2079 171.195C67.1823 171.195 67.1569 171.19 67.1334 171.18C67.1098 171.17 67.0886 171.155 67.071 171.137C67.0534 171.118 67.0397 171.096 67.0309 171.072C67.0221 171.048 67.0183 171.022 67.0197 170.997V168.383C67.0183 168.357 67.0221 168.332 67.0309 168.308C67.0397 168.284 67.0534 168.262 67.071 168.243C67.0886 168.225 67.1098 168.21 67.1334 168.2C67.1569 168.19 67.1823 168.184 67.2079 168.184C67.2344 168.183 67.2609 168.187 67.2857 168.196C67.3104 168.206 67.333 168.22 67.3517 168.239C67.3705 168.258 67.3851 168.28 67.3945 168.305C67.4039 168.33 67.408 168.357 67.4065 168.383V170.997C67.408 171.023 67.4039 171.05 67.3945 171.075C67.3851 171.099 67.3705 171.122 67.3517 171.141C67.333 171.159 67.3104 171.174 67.2857 171.183C67.2609 171.193 67.2344 171.197 67.2079 171.195Z" fill="white"/>
<path d="M66.0699 171.854C66.028 171.851 65.9881 171.836 65.9557 171.809C65.9234 171.782 65.9004 171.746 65.8899 171.705C65.8795 171.665 65.8822 171.622 65.8976 171.583C65.913 171.544 65.9404 171.511 65.9758 171.488L68.2549 170.171C68.3007 170.145 68.355 170.137 68.406 170.151C68.457 170.165 68.5004 170.198 68.5268 170.244C68.5531 170.29 68.5602 170.344 68.5465 170.395C68.5328 170.446 68.4993 170.49 68.4536 170.516L66.1744 171.823C66.1437 171.844 66.1072 171.855 66.0699 171.854Z" fill="white"/>
<path d="M74.182 167.348C74.1076 167.348 74.0348 167.326 73.9729 167.285C73.893 167.237 73.8282 167.167 73.7857 167.084C73.7432 167.001 73.7248 166.908 73.7324 166.815V166.282C73.7324 166.229 73.7533 166.178 73.7906 166.141C73.8278 166.104 73.8783 166.083 73.931 166.083C73.9837 166.083 74.0342 166.104 74.0715 166.141C74.1088 166.178 74.1297 166.229 74.1297 166.282V166.815C74.1153 166.859 74.1153 166.907 74.1297 166.951C74.1741 166.963 74.2211 166.963 74.2656 166.951C74.3849 166.839 74.4785 166.702 74.5399 166.551C74.6013 166.399 74.629 166.236 74.6211 166.073V162.591C74.6211 162.538 74.642 162.488 74.6792 162.451C74.7165 162.413 74.767 162.392 74.8197 162.392C74.8462 162.391 74.8727 162.395 74.8975 162.404C74.9223 162.414 74.9448 162.428 74.9635 162.447C74.9823 162.466 74.9969 162.488 75.0063 162.513C75.0158 162.538 75.0199 162.565 75.0183 162.591V166.073C75.0269 166.305 74.9814 166.537 74.8852 166.749C74.7891 166.962 74.645 167.149 74.4642 167.296C74.3757 167.336 74.2789 167.353 74.182 167.348Z" fill="white"/>
<path d="M72.1206 164.347V164.013C72.1677 163.142 72.4194 162.294 72.8554 161.538C73.2913 160.783 73.8992 160.14 74.6298 159.664C74.8918 159.447 75.214 159.315 75.553 159.287C75.892 159.259 76.2314 159.336 76.5254 159.507C76.8195 159.678 77.054 159.935 77.1974 160.243C77.3407 160.552 77.386 160.897 77.3271 161.232V161.336L72.1206 164.347ZM75.8007 159.705C75.453 159.723 75.1152 159.827 74.818 160.009C74.199 160.419 73.6746 160.957 73.2798 161.586C72.885 162.215 72.6289 162.921 72.5283 163.657L76.9298 161.117C76.9487 160.871 76.9038 160.624 76.7994 160.401C76.695 160.177 76.5347 159.985 76.3339 159.841C76.1768 159.731 75.9924 159.666 75.8007 159.653V159.705Z" fill="white"/>
<path d="M81.2302 163.302C81.1776 163.302 81.127 163.281 81.0898 163.244C81.0525 163.207 81.0316 163.156 81.0316 163.103V156.433C81.0248 156.404 81.0246 156.374 81.0312 156.344C81.0377 156.315 81.0508 156.288 81.0694 156.264C81.088 156.241 81.1116 156.222 81.1386 156.209C81.1655 156.196 81.1951 156.189 81.225 156.189C81.2549 156.189 81.2845 156.196 81.3114 156.209C81.3384 156.222 81.3621 156.241 81.3807 156.264C81.3993 156.288 81.4123 156.315 81.4189 156.344C81.4254 156.374 81.4252 156.404 81.4184 156.433V163.103C81.4185 163.154 81.399 163.203 81.364 163.24C81.329 163.277 81.2811 163.299 81.2302 163.302Z" fill="white"/>
<path d="M80.7061 157.98H80.6225C80.5984 157.97 80.5766 157.955 80.5586 157.936C80.5406 157.917 80.5267 157.895 80.5178 157.87C80.509 157.846 80.5054 157.82 80.5072 157.794C80.509 157.767 80.5162 157.742 80.5284 157.719L81.2184 156.109L82.0025 157.008C82.0371 157.045 82.0563 157.093 82.0563 157.144C82.0563 157.194 82.0371 157.243 82.0025 157.28C81.964 157.315 81.9136 157.335 81.8614 157.335C81.8091 157.335 81.7588 157.315 81.7202 157.28L81.3543 156.851L80.9048 157.897C80.8842 157.929 80.8541 157.955 80.8186 157.97C80.7831 157.985 80.7438 157.988 80.7061 157.98Z" fill="white"/>
<path d="M83.0408 162.257C82.9889 162.254 82.9399 162.232 82.9032 162.196C82.8664 162.159 82.8447 162.11 82.8422 162.058V155.388C82.8422 155.335 82.8631 155.285 82.9003 155.247C82.9376 155.21 82.9881 155.189 83.0408 155.189C83.0935 155.189 83.144 155.21 83.1813 155.247C83.2185 155.285 83.2394 155.335 83.2394 155.388V162.058C83.2369 162.11 83.2152 162.159 83.1784 162.196C83.1417 162.232 83.0927 162.254 83.0408 162.257Z" fill="white"/>
<path d="M82.4651 156.956H82.3919C82.3678 156.946 82.346 156.931 82.3277 156.912C82.3095 156.893 82.295 156.871 82.2853 156.847C82.2756 156.823 82.2708 156.797 82.2711 156.771C82.2715 156.744 82.277 156.719 82.2873 156.695L82.9878 155.084L83.7615 155.984C83.7801 156.002 83.7949 156.024 83.805 156.048C83.8151 156.072 83.8203 156.098 83.8203 156.125C83.8203 156.151 83.8151 156.177 83.805 156.201C83.7949 156.225 83.7801 156.247 83.7615 156.266C83.7236 156.298 83.6754 156.316 83.6256 156.316C83.5757 156.316 83.5275 156.298 83.4897 156.266L83.1133 155.837L82.6637 156.883C82.6409 156.912 82.6101 156.935 82.575 156.948C82.5398 156.961 82.5017 156.964 82.4651 156.956Z" fill="white"/>
<path d="M61.8671 178.472L32.1334 161.305V102.465L61.8671 119.622V178.472Z" fill="#E0E0E0"/>
<path d="M46.2367 117.562L49.1222 119.224V112.272L46.2367 110.599V117.562Z" fill="#0000000"/>
<path d="M49.1222 112.272L78.8454 95.1048L75.9704 93.4425L46.2367 110.599L49.1222 112.272Z" fill="white"/>
<path d="M38.181 150.087L47.2976 155.314C47.8254 155.657 48.2645 156.12 48.5789 156.665C48.8933 157.21 49.074 157.822 49.1063 158.451V164.076C49.1063 165.226 48.3013 165.696 47.2976 165.121L38.181 159.894C37.6518 159.551 37.2111 159.089 36.8949 158.544C36.5788 157.999 36.3961 157.386 36.3618 156.757V151.132C36.3723 149.982 37.1773 149.512 38.181 150.087Z" fill="#0000000"/>
<path d="M37.4781 151.498L37.8232 151.697V157.949L37.4781 157.74V151.498Z" fill="#E0E0E0"/>
<path d="M38.8898 152.314L39.4857 152.659V158.911L38.8898 158.555V152.314Z" fill="#E0E0E0"/>
<path d="M40.295 153.119L40.6401 153.328V159.57L40.295 159.371V153.119Z" fill="#E0E0E0"/>
<path d="M41.3601 153.725L42.0501 154.143V160.385L41.3601 159.977V153.725Z" fill="#E0E0E0"/>
<path d="M43.1248 154.75L43.4698 154.949V161.201L43.1248 161.002V154.75Z" fill="#E0E0E0"/>
<path d="M44.1384 155.325L44.8807 155.764V162.016L44.1384 161.577V155.325Z" fill="#E0E0E0"/>
<path d="M45.9414 156.381L46.2864 156.58V162.832L45.9414 162.622V156.381Z" fill="#E0E0E0"/>
<path d="M46.7499 156.841L46.9172 156.935V163.187L46.7499 163.082V156.841Z" fill="#E0E0E0"/>
<path d="M45.3002 156.036L45.4779 156.14V162.392L45.3002 162.288V156.036Z" fill="#E0E0E0"/>
<path d="M42.4574 154.374L42.6351 154.478V160.72L42.4574 160.626V154.374Z" fill="#E0E0E0"/>
<path d="M40.8982 153.485L41.0759 153.579V159.831L40.8982 159.726V153.485Z" fill="#E0E0E0"/>
<path d="M39.7881 152.868L39.9554 152.962V159.214L39.7881 159.11V152.868Z" fill="#E0E0E0"/>
<path d="M38.2738 151.948L38.4411 152.042V158.294L38.2738 158.19V151.948Z" fill="#E0E0E0"/>
<path d="M47.3402 157.196L47.6957 157.395V163.636L47.3402 163.438V157.196Z" fill="#E0E0E0"/>
<path d="M32.4162 264.453L146.521 330.319C147.924 331.03 149.474 331.401 151.048 331.401C152.621 331.401 154.172 331.03 155.575 330.319L405.582 186.041C408.081 184.599 408.081 182.257 405.582 180.814L291.477 114.948C290.076 114.232 288.525 113.858 286.95 113.858C285.376 113.858 283.825 114.232 282.424 114.948L32.4162 259.226C29.9174 260.668 29.9174 263.01 32.4162 264.453Z" fill="#455A64"/>
<path d="M94.0962 295.033C96.0416 296.015 98.1902 296.526 100.369 296.526C102.548 296.526 104.697 296.015 106.642 295.033C110.124 293.026 110.124 289.806 106.642 287.767C104.698 286.781 102.549 286.267 100.369 286.267C98.1893 286.267 96.0401 286.781 94.0962 287.767C90.6147 289.806 90.6147 293.047 94.0962 295.033Z" fill="#263238"/>
<path d="M148.667 330.319L34.5621 264.453C32.3248 263.157 32.0948 261.149 33.8616 259.707C32.7456 260.589 31.8281 261.697 31.1688 262.958C30.5095 264.219 30.1233 265.605 30.0352 267.025V271.28C30.121 272.851 30.5755 274.379 31.362 275.742C32.1485 277.104 33.2448 278.262 34.5621 279.121L148.667 344.987C150.062 345.716 151.62 346.076 153.194 346.033V331.406C151.616 331.436 150.058 331.062 148.667 330.319Z" fill="#37474F"/>
<path d="M405.572 200.699C406.893 199.842 407.992 198.685 408.781 197.322C409.569 195.96 410.025 194.43 410.11 192.858V188.603C410.025 187.181 409.639 185.793 408.978 184.532C408.316 183.27 407.394 182.163 406.273 181.285C408.05 182.727 407.82 184.735 405.583 186.021L155.576 330.319C154.179 331.045 152.622 331.405 151.049 331.364V346.074C152.622 346.115 154.179 345.755 155.576 345.029L405.572 200.699Z" fill="#263238"/>
<path d="M165.323 316.675L56.1112 253.59C54.6057 252.723 54.6057 251.311 56.1112 250.454L267.216 128.54C268.058 128.112 268.99 127.889 269.934 127.889C270.879 127.889 271.81 128.112 272.653 128.54L381.906 191.614C383.401 192.482 383.401 193.883 381.906 194.75L170.717 316.675C169.881 317.096 168.957 317.316 168.02 317.316C167.083 317.316 166.16 317.096 165.323 316.675Z" fill="white"/>
<path d="M121.312 281.453L134.056 274.092L129.812 271.646L117.067 278.996L121.312 281.453Z" fill="#575BC7"/>
<path d="M274.209 193.182L286.953 185.822L282.698 183.375L269.964 190.736L274.209 193.182Z" fill="#575BC7"/>
<path d="M299.688 178.472L312.433 171.112L308.188 168.666L295.443 176.015L299.688 178.472Z" fill="#575BC7"/>
<path d="M340.586 152.701C341.081 152.948 341.627 153.077 342.18 153.077C342.734 153.077 343.28 152.948 343.775 152.701C343.967 152.635 344.133 152.511 344.251 152.346C344.369 152.181 344.433 151.984 344.433 151.781C344.433 151.578 344.369 151.38 344.251 151.215C344.133 151.05 343.967 150.926 343.775 150.861C343.281 150.609 342.735 150.477 342.18 150.477C341.626 150.477 341.08 150.609 340.586 150.861C340.394 150.926 340.228 151.05 340.11 151.215C339.992 151.38 339.928 151.578 339.928 151.781C339.928 151.984 339.992 152.181 340.11 152.346C340.228 152.511 340.394 152.635 340.586 152.701Z" fill="#263238"/>
<path d="M345.679 167.139C346.666 167.639 347.757 167.899 348.863 167.899C349.969 167.899 351.06 167.639 352.046 167.139C353.803 166.093 353.803 164.473 352.046 163.459C351.06 162.959 349.969 162.699 348.863 162.699C347.757 162.699 346.666 162.959 345.679 163.459C343.923 164.473 343.923 166.125 345.679 167.139Z" fill="#263238"/>
<path d="M341.18 160.741C342.351 160.061 342.288 158.932 341.044 158.211L320.134 146.114C319.461 145.753 318.712 145.558 317.949 145.543C317.186 145.529 316.43 145.696 315.743 146.031C314.572 146.71 314.635 147.839 315.879 148.561L336.852 160.657C337.517 161.007 338.255 161.196 339.006 161.211C339.757 161.225 340.502 161.064 341.18 160.741Z" fill="#263238"/>
<path d="M305.487 111.686L306.198 111.268C305.707 113.052 305.467 114.896 305.487 116.746V119.297C305.487 128.456 316.475 151.854 320.521 160.134C320.939 161.002 315.387 166.909 315.387 166.909L321.984 163.103C321.984 163.103 338.472 149.512 338.472 138.346V135.795C338.472 124.577 331.091 111.226 321.984 105.968C317.384 103.322 313.234 103.228 310.244 105.236L303.971 108.832L305.487 111.686ZM313.736 120.249C313.736 115.021 317.426 112.857 321.984 115.492C321.608 118.869 327.776 129.386 330.223 129.773C330.223 135.001 326.532 137.165 321.984 134.53C319.591 132.962 317.6 130.852 316.174 128.37C314.748 125.889 313.927 123.107 313.777 120.249H313.736Z" fill="#575BC7"/>
<path d="M298.706 123.385C298.895 134.593 315.915 166.909 315.915 166.909C315.915 166.909 332.183 153.088 332.005 141.88V139.329C331.817 128.121 324.216 114.886 315.016 109.784C305.816 104.682 298.518 109.616 298.706 120.834V123.385ZM306.966 124.201C306.882 118.973 310.541 116.747 315.131 119.298C317.557 120.823 319.589 122.898 321.062 125.356C322.536 127.814 323.408 130.585 323.61 133.443C323.704 138.67 320.045 140.897 315.445 138.346C313.022 136.818 310.992 134.742 309.519 132.284C308.046 129.827 307.171 127.058 306.966 124.201Z" fill="#575BC7"/>
<path opacity="0.1" d="M298.706 123.385C298.895 134.593 315.915 166.909 315.915 166.909C315.915 166.909 332.183 153.088 332.005 141.88V139.329C331.817 128.121 324.216 114.886 315.016 109.784C305.816 104.682 298.518 109.616 298.706 120.834V123.385ZM306.966 124.201C306.882 118.973 310.541 116.747 315.131 119.298C317.557 120.823 319.589 122.898 321.062 125.356C322.536 127.814 323.408 130.585 323.61 133.443C323.704 138.67 320.045 140.897 315.445 138.346C313.022 136.818 310.992 134.742 309.519 132.284C308.046 129.827 307.171 127.058 306.966 124.201Z" fill="black"/>
<path d="M139.259 272.859C149.829 278.943 174.607 274.521 194.607 262.968L249.548 231.259C269.548 219.706 277.18 205.425 266.589 199.35C255.999 193.276 231.2 197.719 211.178 209.262L156.343 240.929C136.353 252.472 128.7 266.805 139.259 272.859Z" fill="#F0F0F0"/>
<path d="M299.226 7.02277H299.278L308.322 1.79533H308.395C314.093 -1.09021 321.704 -0.295635 329.901 5.03635C346.377 15.6376 358.955 40.102 358.003 59.6631C357.522 69.4175 353.821 76.1086 348.103 79.0568H348.05L338.996 84.2843H338.934C333.236 87.1803 325.614 86.3753 317.407 81.0537C300.941 70.442 288.363 45.9881 289.315 26.427C289.817 16.6622 293.57 9.97104 299.226 7.02277Z" fill="#37474F"/>
<path d="M339.453 84.0124L348.079 78.9941H348.141C353.808 76.0354 357.551 69.3442 358.032 59.6003C358.45 50.8809 356.181 41.1893 352.083 32.1876L343.029 37.4151C347.138 46.4167 349.407 56.1084 348.978 64.8382C348.528 74.3521 344.932 80.9701 339.453 84.0124Z" fill="#263238"/>
<path d="M317.452 81.0434C300.986 70.4317 288.408 45.9777 289.36 26.4166C290.311 6.85558 304.457 -0.410553 320.892 10.1907C337.327 20.7919 349.946 45.2563 348.994 64.8174C348.043 84.3785 333.918 91.6446 317.452 81.0434Z" fill="#455A64"/>
<path d="M331.247 79.6631C340.96 80.1336 342.538 69.2083 342.747 64.5036C343.584 47.253 332.021 24.7751 317.499 15.4179C314.405 13.2505 310.804 11.9181 307.044 11.5496C297.342 11.0792 295.763 22.0045 295.544 26.7092C294.707 43.9597 306.26 66.4377 320.792 75.8471C323.886 78.0145 327.487 79.3469 331.247 79.7154V79.6631Z" fill="#FAFAFA"/>
<path d="M317.266 48.8526C317.381 48.8529 317.494 48.8316 317.601 48.7899C317.819 48.719 318.008 48.5782 318.138 48.3892C318.269 48.2003 318.333 47.9737 318.322 47.7444V22.8304C318.322 22.5531 318.212 22.2872 318.016 22.0911C317.82 21.8951 317.554 21.7849 317.277 21.7849C316.999 21.7849 316.733 21.8951 316.537 22.0911C316.341 22.2872 316.231 22.5531 316.231 22.8304V44.7125L304.595 29.762C304.423 29.5402 304.17 29.3957 303.892 29.3604C303.613 29.3251 303.332 29.4019 303.11 29.5738C302.888 29.7457 302.744 29.9987 302.709 30.2771C302.673 30.5555 302.75 30.8366 302.922 31.0584L316.461 48.4448C316.556 48.5686 316.678 48.6695 316.817 48.74C316.957 48.8106 317.11 48.8491 317.266 48.8526Z" fill="#37474F"/>
<path d="M323.27 67.2847C323.318 67.2943 323.368 67.2943 323.417 67.2847C323.527 67.2507 323.621 67.1752 323.677 67.0739C323.734 66.9725 323.749 66.8533 323.72 66.7411L317.855 46.9918C317.821 46.8795 317.745 46.785 317.642 46.7292C317.539 46.6733 317.418 46.6606 317.306 46.6939C317.193 46.7271 317.099 46.8036 317.043 46.9066C316.987 47.0095 316.974 47.1304 317.008 47.2427L322.862 66.992C322.892 67.0766 322.947 67.15 323.02 67.2024C323.093 67.2547 323.18 67.2835 323.27 67.2847Z" fill="#575BC7"/>
<path d="M317.608 42.7993C315.664 41.5552 314.002 42.4125 313.897 44.7126C313.903 45.9671 314.206 47.2025 314.78 48.318C315.354 49.4335 316.183 50.3976 317.201 51.1319C319.135 52.3865 320.797 51.5292 320.912 49.2291C320.903 47.9735 320.6 46.7376 320.026 45.6208C319.452 44.504 318.624 43.5376 317.608 42.7993Z" fill="#575BC7"/>
<path d="M146.811 266.743L159.545 259.382L155.3 256.936L142.566 264.286L146.811 266.743Z" fill="#575BC7"/>
<path d="M172.29 252.033L185.034 244.672L180.779 242.226L168.045 249.576L172.29 252.033Z" fill="#575BC7"/>
<path d="M167.051 249.032C167.051 255.18 162.743 262.623 157.422 265.76C154.588 267.401 152.037 267.454 150.281 266.22C149.573 265.663 148.991 264.963 148.575 264.164C148.159 263.366 147.917 262.488 147.866 261.588C148.224 261.421 148.573 261.236 148.911 261.034C154.233 257.971 158.54 250.496 158.54 244.307C158.545 243.849 158.517 243.391 158.457 242.937C159.254 242.515 160.131 242.264 161.031 242.199C161.931 242.134 162.834 242.257 163.684 242.561C165.775 243.439 167.051 245.707 167.051 249.032Z" fill="#263238"/>
<path d="M167.917 236.403L167.739 236.298C165.063 234.876 161.466 235.137 157.42 237.458C149.213 242.195 142.553 253.716 142.553 263.198C142.553 267.966 144.237 271.301 146.955 272.848C149.673 274.396 153.343 274.134 157.41 271.803C165.617 267.067 172.266 255.535 172.266 246.052C172.277 241.285 170.625 237.95 167.917 236.403ZM157.462 265.739C154.618 267.38 152.067 267.433 150.311 266.188C148.764 265.143 147.823 263.052 147.823 260.177C147.823 254.04 152.14 246.586 157.462 243.449C159.888 242.048 162.094 241.808 163.735 242.529C165.763 243.397 167.039 245.666 167.039 249.011C167.049 255.2 162.742 262.676 157.42 265.76L157.462 265.739Z" fill="#37474F"/>
<path d="M164.228 242.812L164.113 242.749C162.378 241.818 160.025 241.996 157.422 243.491C152.1 246.565 147.783 254.04 147.783 260.219C147.783 263.355 148.828 265.446 150.637 266.492C152.445 267.537 154.819 267.328 157.422 265.802C162.744 262.728 167.051 255.253 167.051 249.074C167.051 245.979 165.974 243.805 164.228 242.812ZM157.422 263.564C155.143 264.882 153.094 264.924 151.672 263.92C150.438 263.052 149.675 261.39 149.675 259.09C149.821 256.402 150.599 253.788 151.945 251.457C153.291 249.126 155.168 247.146 157.422 245.676C158.154 245.165 158.996 244.831 159.88 244.703C160.764 244.574 161.666 244.653 162.514 244.934C164.144 245.634 165.169 247.453 165.169 250.161C165.023 252.847 164.246 255.461 162.9 257.79C161.554 260.119 159.677 262.098 157.422 263.564Z" fill="#575BC7"/>
<path d="M197.763 237.312L210.508 229.962L206.263 227.505L193.519 234.866L197.763 237.312Z" fill="#575BC7"/>
<path d="M223.26 222.602L235.994 215.252L231.749 212.796L219.005 220.156L223.26 222.602Z" fill="#575BC7"/>
<path d="M248.733 207.892L261.467 200.542L257.222 198.085L244.478 205.446L248.733 207.892Z" fill="#575BC7"/>
<path d="M185.325 139.486C185.458 139.308 185.645 139.177 185.857 139.112C186.07 139.048 186.298 139.052 186.507 139.126C186.717 139.199 186.898 139.337 187.024 139.521C187.15 139.704 187.214 139.922 187.207 140.145C187.289 140.74 187.228 141.346 187.03 141.913C186.832 142.48 186.502 142.992 186.067 143.406C185.231 144.128 184.384 143.835 184.185 142.748C184.105 142.153 184.166 141.547 184.364 140.98C184.562 140.413 184.891 139.901 185.325 139.486Z" fill="#575BC7"/>
<path d="M195.14 144.107L186.619 139.183L184.747 143.689L193.3 148.624L195.14 144.107Z" fill="#575BC7"/>
<path d="M193.821 144.389C194.657 143.678 195.494 143.971 195.703 145.058C195.78 145.653 195.716 146.257 195.516 146.821C195.316 147.386 194.986 147.896 194.553 148.31C193.716 149.031 192.869 148.738 192.671 147.651C192.595 147.055 192.659 146.45 192.859 145.884C193.058 145.317 193.388 144.805 193.821 144.389Z" fill="#575BC7"/>
<path d="M259.312 185.623C259.312 185.832 259.312 186.021 259.312 186.23C259.312 186.648 259.312 187.077 259.312 187.505C257.618 186.784 255.412 187.024 252.986 188.425C247.665 191.499 243.347 198.974 243.347 205.153C243.347 208.018 244.288 210.088 245.835 211.165C245.401 211.474 244.951 211.76 244.487 212.022L243.995 212.273L242.521 217.824L233.99 213.067C231.293 211.51 229.63 208.185 229.63 203.438C229.63 193.956 236.28 182.435 244.487 177.688C248.543 175.346 252.213 175.106 254.941 176.643L263.305 181.326L263.483 181.431L259.312 185.623Z" fill="#455A64"/>
<path d="M263.476 181.337L263.299 181.232C260.622 179.81 257.026 180.072 252.98 182.393C244.773 187.129 238.113 198.65 238.113 208.133C238.113 212.9 239.796 216.235 242.514 217.782C245.233 219.33 248.902 219.068 252.969 216.737C261.176 212.001 267.826 200.469 267.826 190.987C267.857 186.219 266.174 182.884 263.476 181.337ZM253.021 210.673C250.178 212.315 247.627 212.367 245.87 211.123C244.323 210.077 243.382 207.986 243.382 205.111C243.382 198.974 247.7 191.52 253.021 188.383C255.447 186.982 257.653 186.742 259.347 187.463C261.375 188.331 262.65 190.6 262.65 193.945C262.629 200.135 258.301 207.61 252.98 210.673H253.021Z" fill="#37474F"/>
<path d="M262.629 193.987C262.629 200.135 258.322 207.579 253 210.715C250.167 212.356 247.616 212.409 245.86 211.175C245.152 210.619 244.57 209.918 244.154 209.119C243.737 208.321 243.496 207.443 243.445 206.543C243.802 206.376 244.151 206.192 244.49 205.989C249.812 202.926 254.119 195.451 254.119 189.262C254.124 188.804 254.096 188.346 254.035 187.892C254.833 187.47 255.71 187.219 256.61 187.154C257.51 187.089 258.413 187.212 259.263 187.516C261.333 188.394 262.629 190.642 262.629 193.987Z" fill="#263238"/>
<path d="M259.787 187.746L259.672 187.673C257.937 186.753 255.574 186.92 252.981 188.425C247.66 191.499 243.342 198.964 243.342 205.153C243.342 208.29 244.387 210.381 246.196 211.426C248.005 212.472 250.378 212.252 252.981 210.726C258.303 207.662 262.61 200.187 262.61 193.998C262.631 190.914 261.586 188.749 259.787 187.746ZM252.981 208.488C250.692 209.816 248.643 209.858 247.231 208.854C245.987 207.986 245.234 206.324 245.234 204.024C245.381 201.337 246.159 198.722 247.505 196.391C248.851 194.061 250.727 192.08 252.981 190.61C254.926 189.481 256.703 189.283 258.062 189.868C259.693 190.569 260.718 192.388 260.718 195.096C260.573 197.779 259.796 200.391 258.452 202.718C257.108 205.045 255.233 207.022 252.981 208.488Z" fill="#575BC7"/>
<path d="M244.481 197.113L268.528 183.229C271.319 181.609 262.255 172.147 255.511 171.509C251.799 171.061 248.033 171.417 244.471 172.555C244.471 172.555 249.604 179.131 248.726 182.863C247.848 186.596 244.481 197.113 244.481 197.113Z" fill="#575BC7"/>
<path d="M210.511 157.876C210.511 157.876 245.367 175.461 246.873 176.517C248.378 177.573 246.873 189.837 244.479 197.113C242.084 204.39 238.404 215.577 236.93 218.713C235.456 221.849 233.532 223.02 229.999 225.059L204.907 239.56L170.939 243.7L157.452 236.382L160.965 214.312C160.965 214.312 197.066 195.106 202.011 192.252C206.956 189.398 221.582 176.005 210.511 157.876Z" fill="#575BC7"/>
<path opacity="0.2" d="M210.511 157.876C210.511 157.876 245.367 175.461 246.873 176.517C248.378 177.573 246.873 189.837 244.479 197.113C242.084 204.39 238.404 215.577 236.93 218.713C235.456 221.849 233.532 223.02 229.999 225.059L204.907 239.56L170.939 243.7L157.452 236.382L160.965 214.312C160.965 214.312 197.066 195.106 202.011 192.252C206.956 189.398 221.582 176.005 210.511 157.876Z" fill="black"/>
<path d="M247.547 192.921C250.683 184.494 253.025 177.51 252.628 172.795C252.147 167.202 250.056 162.633 240.835 160.333C231.613 158.033 218.723 158.075 218.723 158.075L214.802 160.343C214.802 160.343 241.316 175.712 244.327 177.385C246.167 178.43 248.132 183.041 244.525 197.124L245.142 197.479C245.445 197.667 246.543 195.629 247.547 192.921Z" fill="#575BC7"/>
<path opacity="0.3" d="M247.547 192.921C250.683 184.494 253.025 177.51 252.628 172.795C252.147 167.202 250.056 162.633 240.835 160.333C231.613 158.033 218.723 158.075 218.723 158.075L214.802 160.343C214.802 160.343 241.316 175.712 244.327 177.385C246.167 178.43 248.132 183.041 244.525 197.124L245.142 197.479C245.445 197.667 246.543 195.629 247.547 192.921Z" fill="white"/>
<path d="M227.455 167.683L231.742 165.236C231.742 165.236 231.491 150.38 225.239 146.773C218.987 143.166 197.763 145.623 197.763 145.623L193.519 148.069L227.455 167.683Z" fill="#575BC7"/>
<path d="M213.553 150.171C211.514 151.352 211.514 153.255 213.553 154.426C214.696 155.008 215.96 155.311 217.243 155.311C218.526 155.311 219.791 155.008 220.934 154.426C222.962 153.255 222.962 151.342 220.934 150.171C219.789 149.594 218.525 149.293 217.243 149.293C215.961 149.293 214.697 149.594 213.553 150.171Z" fill="#F0F0F0"/>
<path d="M220.079 157.27C218.647 158.106 218.647 159.455 220.079 160.281C220.888 160.694 221.784 160.91 222.693 160.91C223.602 160.91 224.497 160.694 225.306 160.281C226.749 159.455 226.749 158.106 225.306 157.27C224.496 156.861 223.601 156.648 222.693 156.648C221.785 156.648 220.89 156.861 220.079 157.27Z" fill="#F0F0F0"/>
<path d="M203.654 148.278C202.212 149.104 202.212 150.453 203.654 151.289C204.465 151.698 205.36 151.911 206.268 151.911C207.176 151.911 208.071 151.698 208.882 151.289C210.325 150.453 210.325 149.104 208.882 148.278C208.073 147.865 207.177 147.649 206.268 147.649C205.359 147.649 204.463 147.865 203.654 148.278Z" fill="#F0F0F0"/>
<path d="M228.133 163.375C228.969 162.654 229.806 162.947 230.015 164.034C230.092 164.63 230.028 165.235 229.828 165.802C229.628 166.368 229.298 166.88 228.865 167.296C228.731 167.474 228.545 167.605 228.332 167.669C228.12 167.734 227.892 167.729 227.682 167.656C227.473 167.583 227.292 167.444 227.166 167.261C227.04 167.078 226.976 166.859 226.983 166.637C226.902 166.041 226.965 165.435 227.165 164.868C227.364 164.301 227.696 163.789 228.133 163.375Z" fill="#575BC7"/>
<path d="M237.886 167.996L229.354 163.072L227.494 167.578L236.035 172.502L237.886 167.996Z" fill="#575BC7"/>
<path d="M236.562 168.279C236.695 168.101 236.881 167.97 237.094 167.905C237.307 167.84 237.534 167.845 237.744 167.919C237.954 167.992 238.135 168.13 238.26 168.314C238.386 168.497 238.45 168.715 238.444 168.937C238.523 169.533 238.46 170.14 238.261 170.707C238.061 171.274 237.729 171.785 237.294 172.199C236.457 172.921 235.621 172.617 235.412 171.541C235.334 170.945 235.397 170.339 235.597 169.772C235.797 169.206 236.127 168.694 236.562 168.279Z" fill="#575BC7"/>
<path d="M236.562 168.279C236.695 168.101 236.881 167.97 237.094 167.905C237.307 167.84 237.534 167.845 237.744 167.919C237.954 167.992 238.135 168.13 238.26 168.314C238.386 168.497 238.45 168.715 238.444 168.937C238.523 169.533 238.46 170.14 238.261 170.707C238.061 171.274 237.729 171.785 237.294 172.199C236.457 172.921 235.621 172.617 235.412 171.541C235.334 170.945 235.397 170.339 235.597 169.772C235.797 169.206 236.127 168.694 236.562 168.279Z" fill="black"/>
<path d="M163.758 240.668C163.758 240.877 163.758 241.066 163.758 241.275C163.758 241.693 163.758 242.121 163.758 242.55C162.064 241.829 159.858 242.069 157.485 243.47C152.163 246.544 147.845 254.019 147.845 260.198C147.845 263.063 148.786 265.133 150.334 266.21C149.899 266.518 149.449 266.805 148.985 267.067L148.494 267.318L147.019 272.869L138.488 268.112C135.791 266.555 134.129 263.23 134.129 258.483C134.129 249.001 140.778 237.48 148.985 232.733C153.041 230.391 156.711 230.151 159.44 231.688L167.804 236.371L167.981 236.476L163.758 240.668Z" fill="#455A64"/>
<path d="M138.314 224.076L131.947 246.146L144.691 253.507L151.288 231.572L138.314 224.076Z" fill="#575BC7"/>
<path opacity="0.2" d="M138.314 224.076L131.947 246.146L144.691 253.507L151.288 231.572L138.314 224.076Z" fill="black"/>
<path d="M138.312 224.076C138.312 224.076 145.536 230.213 151.287 231.572C158.835 233.402 170.837 233.601 175.092 233.893C181.595 234.343 186.509 234.333 188.809 233.507C191.789 232.461 199.797 227.809 202.014 226.533C206.258 224.087 208.067 214.458 196.368 211.823C188.458 210.184 180.4 209.361 172.322 209.366L138.312 224.076Z" fill="#575BC7"/>
<path d="M210.357 221.254C209.993 222.163 209.747 223.115 209.625 224.087C209.288 225.097 209.209 226.175 209.395 227.223C210.192 228.541 211.446 229.52 212.918 229.973C213.979 230.209 215.076 230.224 216.143 230.017C217.21 229.81 218.222 229.386 219.118 228.771C221.282 227.474 222.913 225.906 225.987 225.028C228.184 224.563 230.253 223.624 232.05 222.278C233.755 220.909 236.034 217.124 232.772 216.246C229.51 215.368 222.422 218.462 215.96 218.744L210.357 221.254Z" fill="#37474F"/>
<path d="M210.362 217.218V222.048C210.56 222.591 210.903 223.068 211.355 223.428C211.807 223.788 212.35 224.016 212.923 224.087C213.448 224.164 213.984 224.106 214.481 223.92C215.264 223.621 215.943 223.099 216.433 222.419C216.924 221.739 217.204 220.931 217.241 220.093L217.429 217.218H210.362Z" fill="#FFA8A7"/>
<path d="M219.561 187.348C219.561 193.36 217.868 219.351 217.868 219.351C217.868 219.351 215.411 222.487 210.068 219.351L208.27 190.307L219.561 187.348Z" fill="#37474F"/>
<path d="M191.536 212.963L208.264 203.323C208.95 202.964 209.524 202.423 209.924 201.761C210.325 201.098 210.536 200.339 210.536 199.565C210.536 198.791 210.325 198.031 209.924 197.369C209.524 196.706 208.95 196.166 208.264 195.806L195.802 188.613C195.1 188.258 194.325 188.073 193.538 188.073C192.752 188.073 191.976 188.258 191.275 188.613L174.547 198.253C173.865 198.615 173.294 199.156 172.895 199.818C172.497 200.481 172.287 201.239 172.287 202.011C172.287 202.784 172.497 203.542 172.895 204.204C173.294 204.866 173.865 205.408 174.547 205.77L187.009 212.963C187.711 213.318 188.486 213.503 189.273 213.503C190.059 213.503 190.835 213.318 191.536 212.963Z" fill="#575BC7"/>
<path d="M191.536 212.963L208.264 203.323C208.95 202.964 209.524 202.423 209.924 201.761C210.325 201.098 210.536 200.339 210.536 199.565C210.536 198.791 210.325 198.031 209.924 197.369C209.524 196.706 208.95 196.166 208.264 195.806L195.802 188.613C195.1 188.258 194.325 188.073 193.538 188.073C192.752 188.073 191.976 188.258 191.275 188.613L174.547 198.253C173.865 198.615 173.294 199.156 172.895 199.818C172.497 200.481 172.287 201.239 172.287 202.011C172.287 202.784 172.497 203.542 172.895 204.204C173.294 204.866 173.865 205.408 174.547 205.77L187.009 212.963C187.711 213.318 188.486 213.503 189.273 213.503C190.059 213.503 190.835 213.318 191.536 212.963Z" fill="white"/>
<path d="M174.552 200.866L187.014 208.059C187.715 208.415 188.491 208.6 189.277 208.6C190.064 208.6 190.839 208.415 191.541 208.059L208.269 198.42C208.542 198.327 208.779 198.151 208.947 197.917C209.115 197.683 209.205 197.402 209.205 197.113C209.205 196.825 209.115 196.544 208.947 196.309C208.779 196.075 208.542 195.899 208.269 195.806L195.806 188.613C195.105 188.258 194.329 188.073 193.543 188.073C192.756 188.073 191.981 188.258 191.279 188.613L174.552 198.253C174.279 198.345 174.041 198.521 173.873 198.756C173.705 198.99 173.615 199.271 173.615 199.56C173.615 199.848 173.705 200.129 173.873 200.364C174.041 200.598 174.279 200.774 174.552 200.866Z" fill="#575BC7"/>
<path d="M184.745 136.883L182.623 145.633L173.506 146.187L175.472 134.06L184.745 136.883Z" fill="#FFA8A7"/>
<path d="M193.631 130.296C193.631 130.296 194.676 133.997 194.248 134.206C193.589 134.307 192.919 134.307 192.261 134.206L193.631 130.296Z" fill="#F28F8F"/>
<path d="M191.879 118.482C193.343 120.207 194.681 123.04 193.646 129.982C192.517 137.573 191.116 138.451 189.987 139.183C188.513 140.145 182.616 139.632 180.954 138.419C178.957 136.966 175.873 132.356 175.141 127.808C174.284 122.465 176.071 116.537 180.003 115.523C185.533 114.091 190.635 117.018 191.879 118.482Z" fill="#FFA8A7"/>
<path d="M174.548 136.517C175.959 137.98 178.855 138.378 180.674 138.712C182.494 139.047 188.087 139.413 189.739 135.429C191.391 131.446 190.261 128.582 192.29 127.62C194.318 126.658 196.346 126.031 196.879 125.529C197.413 125.027 197.423 118.472 191.976 115.074C186.529 111.676 178.186 110.892 172.697 117.782C168.536 123.103 170.24 132.021 174.548 136.517Z" fill="#455A64"/>
<path d="M180.038 138.765C181.449 138.89 185.913 138.19 187.262 136.349C188.611 134.509 189.154 131.216 189.353 129.491C189.371 128.812 189.621 128.159 190.06 127.64C190.499 127.121 191.101 126.767 191.768 126.637C193.117 126.208 196.097 124.745 196.097 124.745V123.929C197.057 123.869 198.021 123.869 198.982 123.929C199.609 124.044 199.264 124.975 197.675 125.78C196.086 126.585 191.726 128.142 191.057 128.676C190.388 129.209 190.075 131.457 189.541 133.851C189.008 136.245 187.356 139.82 180.038 138.765Z" fill="#37474F"/>
<path d="M192.583 148.665L197.81 145.665C198.312 144.149 197.507 143.386 196.085 143.48C194.663 143.574 195.102 142.194 194.234 141.807C193.095 141.284 192.447 141.577 191.934 141.337C191.422 141.096 191.203 140.49 190.533 140.416C187.543 140.134 185.505 144.4 185.505 144.4L192.583 148.665Z" fill="#F28F8F"/>
<path d="M157.093 187.055C157.093 187.055 180.188 175.607 184.213 173.757C188.238 171.906 194.553 169.219 197.909 169.219C199.22 169.328 200.448 169.906 201.368 170.847C202.288 171.788 202.838 173.029 202.916 174.342C202.96 176.359 202.845 178.376 202.571 180.375C196.226 182.456 189.742 184.088 183.167 185.257C173.559 186.93 157.093 187.055 157.093 187.055Z" fill="#37474F"/>
<path d="M159.607 180.438C159.607 185.184 159.157 190.119 161.133 193.59C163.109 197.061 173.815 205.09 183.894 203.407C190.48 202.299 210.031 193.297 210.031 193.297C210.031 193.297 219.513 189.816 219.555 187.338C219.618 183.689 219.367 178.545 211.097 178.765C203.559 178.964 181.322 183.606 181.322 183.606L159.607 180.438Z" fill="#455A64"/>
<path d="M166.054 142.831C169.63 139.099 172.045 138.785 173.76 139.245C177.7 140.373 181.515 141.901 185.145 143.804C185.145 143.804 183.765 157.165 190.299 161.012V181.839C190.299 181.839 190.101 184.097 187.257 186.345C184.748 188.321 179.071 190.317 172.296 189.753C164.246 189.084 159.604 180.438 159.604 180.438C159.604 180.438 159.395 163.407 160.534 156.642C161.873 148.749 164.821 144.128 166.054 142.831Z" fill="#455A64"/>
<path d="M190.306 162.026C190.306 162.026 186.354 158.89 185.152 154.813C185.152 154.813 185.622 161.211 190.306 164.452V162.026Z" fill="#37474F"/>
<path d="M226.889 171.854C228.766 171.932 230.612 171.359 232.116 170.234C232.116 170.234 233.936 166.7 236.173 167.003C236.173 167.003 236.57 165.498 235.65 165.006C234.73 164.515 234.333 164.651 233.957 164.128C233.58 163.605 233.538 162.633 231.866 162.633C231.176 162.633 231.27 162.142 229.597 161.943C227.924 161.744 226.272 165.602 225.049 165.602L226.889 171.854Z" fill="#FFA8A7"/>
<path d="M185.146 143.804C190.886 144.692 192.967 146.397 195.058 148.331C197.149 150.265 209.945 163.103 209.945 163.103L225.44 165.33C226.254 165.99 226.851 166.878 227.154 167.881C227.781 169.7 227.217 171.687 226.621 172.157C226.621 172.157 211.252 173.077 208.231 172.502C205.209 171.927 190.248 161.995 190.248 161.995C188.818 160.917 187.619 159.563 186.721 158.013C185.823 156.463 185.245 154.75 185.021 152.973C184.049 146.668 185.146 143.804 185.146 143.804Z" fill="#455A64"/>
<path d="M171.37 199.027L147.626 228.007C147.363 228.041 147.098 228.058 146.832 228.06C145.89 228.075 144.96 227.855 144.124 227.422L124.072 215.838L122.713 215.054C121.97 214.625 121.353 212.869 121.353 211.133V206.251C121.353 201.235 122.672 196.308 125.179 191.964C127.686 187.62 131.292 184.013 135.635 181.504L159.576 167.683L185.055 182.393L171.37 199.027Z" fill="#575BC7"/>
<g opacity="0.1">
<path d="M171.37 199.027L147.626 228.007C147.363 228.041 147.098 228.058 146.832 228.06C145.89 228.075 144.96 227.855 144.124 227.422L124.072 215.838L122.713 215.054C121.97 214.625 121.353 212.869 121.353 211.133V206.251C121.353 201.235 122.672 196.308 125.179 191.964C127.686 187.62 131.292 184.013 135.635 181.504L159.576 167.683L185.055 182.393L171.37 199.027Z" fill="black"/>
</g>
<path d="M163.184 209.021L185.024 182.403L159.546 167.693L135.615 181.504C132.519 183.296 129.788 185.655 127.564 188.457L163.184 209.021Z" fill="#575BC7"/>
<path d="M185.024 203.773C185.024 205.509 184.418 207.265 183.665 207.694L182.306 208.478L149.519 227.412C148.923 227.733 148.269 227.935 147.595 228.007C147.332 228.041 147.067 228.058 146.801 228.06V220.961C146.8 215.944 148.121 211.016 150.629 206.672C153.138 202.327 156.747 198.721 161.093 196.214L163.801 194.656L185.024 182.393V203.773Z" fill="#575BC7"/>
<g opacity="0.2">
<path d="M185.024 203.773C185.024 205.509 184.418 207.265 183.665 207.694L182.306 208.478L149.519 227.412C148.923 227.733 148.269 227.935 147.595 228.007C147.332 228.041 147.067 228.058 146.801 228.06V220.961C146.8 215.944 148.121 211.016 150.629 206.672C153.138 202.327 156.747 198.721 161.093 196.214L163.801 194.656L185.024 182.393V203.773Z" fill="black"/>
</g>
<path d="M192.057 239.633L204.885 239.591L223.244 228.99L205.261 241.985L191.722 242.174L192.057 239.633Z" fill="#E0E0E0"/>
<path d="M160.908 257.887C160.908 257.887 184.034 249.168 186 248.143C188.307 246.73 190.495 245.132 192.545 243.366C192.963 242.812 193.159 242.123 193.095 241.432C193.032 240.742 192.712 240.1 192.2 239.633C192.2 239.633 182.79 239.204 180.375 239.947C179.027 240.355 157.26 247.338 157.26 247.338L160.908 257.887Z" fill="#E0E0E0"/>
<path d="M159.884 248.143C157.971 246.502 156.047 247.181 155.577 249.649C155.397 251.01 155.541 252.395 155.997 253.69C156.453 254.985 157.208 256.155 158.201 257.103C160.114 258.745 162.038 258.075 162.508 255.598C162.687 254.236 162.543 252.852 162.087 251.557C161.631 250.262 160.876 249.092 159.884 248.143Z" fill="#455A64"/>
</svg>
