<svg width="22" height="22" viewBox="0 0 22 22" fill="none" xmlns="http://www.w3.org/2000/svg">
<g opacity="0.5">
<path d="M2.90588 6.82L11.0001 11.5042L19.0392 6.8475" stroke="#7B68EE" stroke-width="1.5" stroke-linecap="round" stroke-linejoin="round"/>
<path d="M2.90588 6.82L11.0001 11.5042L19.0392 6.8475" stroke="#7B68EE" stroke-opacity="0.6" stroke-width="1.5" stroke-linecap="round" stroke-linejoin="round"/>
<path d="M2.90588 6.82L11.0001 11.5042L19.0392 6.8475" stroke="#7B68EE" stroke-opacity="0.6" stroke-width="1.5" stroke-linecap="round" stroke-linejoin="round"/>
</g>
<g opacity="0.5">
<path d="M11 19.8091V11.495" stroke="#7B68EE" stroke-width="1.5" stroke-linecap="round" stroke-linejoin="round"/>
<path d="M11 19.8091V11.495" stroke="#7B68EE" stroke-opacity="0.6" stroke-width="1.5" stroke-linecap="round" stroke-linejoin="round"/>
<path d="M11 19.8091V11.495" stroke="#7B68EE" stroke-opacity="0.6" stroke-width="1.5" stroke-linecap="round" stroke-linejoin="round"/>
</g>
<path d="M9.10307 2.27359L4.20807 4.98692C3.09891 5.60109 2.19141 7.14109 2.19141 8.40609V13.5853C2.19141 14.8503 3.09891 16.3903 4.20807 17.0044L9.10307 19.7269C10.1481 20.3044 11.8622 20.3044 12.9072 19.7269L17.8022 17.0044C18.9114 16.3903 19.8189 14.8503 19.8189 13.5853V8.40609C19.8189 7.14109 18.9114 5.60109 17.8022 4.98692L12.9072 2.26442C11.8531 1.68692 10.1481 1.68692 9.10307 2.27359Z" stroke="#7B68EE" stroke-width="1.5" stroke-linecap="round" stroke-linejoin="round"/>
<path d="M9.10307 2.27359L4.20807 4.98692C3.09891 5.60109 2.19141 7.14109 2.19141 8.40609V13.5853C2.19141 14.8503 3.09891 16.3903 4.20807 17.0044L9.10307 19.7269C10.1481 20.3044 11.8622 20.3044 12.9072 19.7269L17.8022 17.0044C18.9114 16.3903 19.8189 14.8503 19.8189 13.5853V8.40609C19.8189 7.14109 18.9114 5.60109 17.8022 4.98692L12.9072 2.26442C11.8531 1.68692 10.1481 1.68692 9.10307 2.27359Z" stroke="#7B68EE" stroke-opacity="0.6" stroke-width="1.5" stroke-linecap="round" stroke-linejoin="round"/>
<path d="M9.10307 2.27359L4.20807 4.98692C3.09891 5.60109 2.19141 7.14109 2.19141 8.40609V13.5853C2.19141 14.8503 3.09891 16.3903 4.20807 17.0044L9.10307 19.7269C10.1481 20.3044 11.8622 20.3044 12.9072 19.7269L17.8022 17.0044C18.9114 16.3903 19.8189 14.8503 19.8189 13.5853V8.40609C19.8189 7.14109 18.9114 5.60109 17.8022 4.98692L12.9072 2.26442C11.8531 1.68692 10.1481 1.68692 9.10307 2.27359Z" stroke="#7B68EE" stroke-opacity="0.6" stroke-width="1.5" stroke-linecap="round" stroke-linejoin="round"/>
</svg>
