<svg width="22" height="22" viewBox="0 0 22 22" fill="none" xmlns="http://www.w3.org/2000/svg">
<path d="M20.1391 16.8025C20.1391 17.1325 20.0658 17.4717 19.91 17.8017C19.7541 18.1317 19.5525 18.4433 19.2866 18.7367C18.8375 19.2317 18.3425 19.5892 17.7833 19.8183C17.2333 20.0475 16.6375 20.1667 15.9958 20.1667C15.0608 20.1667 14.0616 19.9467 13.0075 19.4975C11.9533 19.0483 10.8991 18.4433 9.85413 17.6825C8.79997 16.9125 7.8008 16.06 6.84746 15.1158C5.9033 14.1625 5.0508 13.1633 4.28996 12.1183C3.5383 11.0733 2.9333 10.0283 2.4933 8.99251C2.0533 7.94751 1.8333 6.94834 1.8333 5.99501C1.8333 5.37168 1.9433 4.77584 2.1633 4.22584C2.3833 3.66668 2.73163 3.15334 3.21746 2.69501C3.80413 2.11751 4.4458 1.83334 5.12413 1.83334C5.3808 1.83334 5.63746 1.88834 5.86663 1.99834C6.10496 2.10834 6.3158 2.27334 6.4808 2.51168L8.60747 5.50918C8.77247 5.73834 8.89163 5.94918 8.97413 6.15084C9.05663 6.34334 9.10247 6.53584 9.10247 6.71001C9.10247 6.93001 9.0383 7.15001 8.90997 7.36084C8.7908 7.57168 8.61663 7.79168 8.39663 8.01168L7.69996 8.73584C7.59913 8.83668 7.5533 8.95584 7.5533 9.10251C7.5533 9.17584 7.56247 9.24001 7.5808 9.31334C7.6083 9.38668 7.6358 9.44168 7.65413 9.49668C7.81913 9.79918 8.1033 10.1933 8.50663 10.67C8.91913 11.1467 9.35913 11.6325 9.8358 12.1183C10.3308 12.6042 10.8075 13.0533 11.2933 13.4658C11.77 13.8692 12.1641 14.1442 12.4758 14.3092C12.5216 14.3275 12.5766 14.355 12.6408 14.3825C12.7141 14.41 12.7875 14.4192 12.87 14.4192C13.0258 14.4192 13.145 14.3642 13.2458 14.2633L13.9425 13.5758C14.1716 13.3467 14.3916 13.1725 14.6025 13.0625C14.8133 12.9342 15.0241 12.87 15.2533 12.87C15.4275 12.87 15.6108 12.9067 15.8125 12.9892C16.0141 13.0717 16.225 13.1908 16.4541 13.3467L19.4883 15.5008C19.7266 15.6658 19.8916 15.8583 19.9925 16.0875C20.0841 16.3167 20.1391 16.5458 20.1391 16.8025Z" stroke="#7B68EE" stroke-width="1.5" stroke-miterlimit="10"/>
</svg>
