<svg width="22" height="22" viewBox="0 0 22 22" fill="none" xmlns="http://www.w3.org/2000/svg">
<path d="M7.33334 14.6667H5.50001C5.01377 14.6667 4.54746 14.4735 4.20364 14.1297C3.85983 13.7859 3.66667 13.3196 3.66667 12.8334V5.50002C3.66667 5.01379 3.85983 4.54747 4.20364 4.20366C4.54746 3.85984 5.01377 3.66669 5.50001 3.66669H12.8333C13.3196 3.66669 13.7859 3.85984 14.1297 4.20366C14.4735 4.54747 14.6667 5.01379 14.6667 5.50002V7.33335M9.16667 18.3334H16.5C16.9862 18.3334 17.4525 18.1402 17.7964 17.7964C18.1402 17.4526 18.3333 16.9863 18.3333 16.5V9.16669C18.3333 8.68046 18.1402 8.21414 17.7964 7.87032C17.4525 7.52651 16.9862 7.33335 16.5 7.33335H9.16667C8.68044 7.33335 8.21413 7.52651 7.87031 7.87032C7.52649 8.21414 7.33334 8.68046 7.33334 9.16669V16.5C7.33334 16.9863 7.52649 17.4526 7.87031 17.7964C8.21413 18.1402 8.68044 18.3334 9.16667 18.3334Z" stroke="#7B68EE" stroke-width="1.5" stroke-linecap="round" stroke-linejoin="round"/>
</svg>
