<svg width="22" height="22" viewBox="0 0 22 22" fill="none" xmlns="http://www.w3.org/2000/svg">
<path d="M10.1569 21.5V19.1083C9.075 18.9185 8.18762 18.5057 7.49479 17.8698C6.80197 17.2339 6.3037 16.4319 6 15.4639L7.59444 14.809C7.91713 15.7201 8.38218 16.3987 8.98958 16.8448C9.59699 17.2909 10.3278 17.5139 11.1819 17.5139C12.0931 17.5139 12.8428 17.2861 13.4312 16.8306C14.0197 16.375 14.3139 15.7486 14.3139 14.9514C14.3139 14.1162 14.0529 13.4708 13.5309 13.0153C13.0089 12.5597 12.0266 12.0947 10.584 11.6201C9.21736 11.1836 8.19711 10.6046 7.52326 9.88333C6.84942 9.16204 6.5125 8.26042 6.5125 7.17847C6.5125 6.13449 6.84942 5.26134 7.52326 4.55903C8.19711 3.85671 9.075 3.4581 10.1569 3.36319V1H11.8653V3.36319C12.7194 3.4581 13.455 3.73808 14.0719 4.20313C14.6888 4.66817 15.1586 5.26134 15.4812 5.98264L13.8868 6.66597C13.6211 6.05856 13.2652 5.61725 12.8191 5.34201C12.373 5.06678 11.7894 4.92917 11.0681 4.92917C10.1949 4.92917 9.50208 5.12847 8.98958 5.52708C8.47708 5.92569 8.22083 6.46667 8.22083 7.15C8.22083 7.8713 8.50556 8.45498 9.075 8.90104C9.64444 9.34711 10.6979 9.80741 12.2354 10.2819C13.5262 10.6806 14.48 11.2547 15.0969 12.0045C15.7138 12.7543 16.0222 13.6986 16.0222 14.8375C16.0222 16.0333 15.6711 16.9966 14.9687 17.7274C14.2664 18.4582 13.2319 18.928 11.8653 19.1368V21.5H10.1569Z" fill="#7B68EE"/>
</svg>
