<svg width="22" height="22" viewBox="0 0 22 22" fill="none" xmlns="http://www.w3.org/2000/svg">
<path d="M11.0923 16.3396C11.3363 16.3396 11.5424 16.2553 11.7104 16.0868C11.8785 15.9184 11.9625 15.7121 11.9625 15.4681C11.9625 15.2241 11.8783 15.018 11.7098 14.85C11.5413 14.6819 11.335 14.5979 11.091 14.5979C10.847 14.5979 10.641 14.6821 10.4729 14.8506C10.3049 15.0191 10.2208 15.2254 10.2208 15.4694C10.2208 15.7134 10.3051 15.9194 10.4736 16.0875C10.642 16.2555 10.8483 16.3396 11.0923 16.3396ZM11.0061 20.1666C9.7421 20.1666 8.55425 19.926 7.44255 19.4448C6.33085 18.9635 5.35868 18.3066 4.52604 17.4739C3.6934 16.6413 3.03645 15.6686 2.5552 14.5557C2.07395 13.4429 1.83333 12.2538 1.83333 10.9885C1.83333 9.72323 2.07395 8.53417 2.5552 7.42134C3.03645 6.30849 3.6934 5.33956 4.52604 4.51456C5.35868 3.68956 6.33142 3.03644 7.44427 2.55519C8.5571 2.07394 9.74616 1.83331 11.0115 1.83331C12.2767 1.83331 13.4658 2.07394 14.5786 2.55519C15.6915 3.03644 16.6604 3.68956 17.4854 4.51456C18.3104 5.33956 18.9635 6.3097 19.4448 7.42498C19.926 8.54026 20.1667 9.72989 20.1667 10.9939C20.1667 12.2579 19.926 13.4457 19.4448 14.5574C18.9635 15.6691 18.3104 16.6399 17.4854 17.4697C16.6604 18.2995 15.6903 18.9565 14.575 19.4406C13.4597 19.9246 12.2701 20.1666 11.0061 20.1666ZM11.0115 18.7916C13.1733 18.7916 15.0104 18.0316 16.5229 16.5114C18.0354 14.9913 18.7917 13.1503 18.7917 10.9885C18.7917 8.82672 18.0368 6.98956 16.5272 5.47706C15.0176 3.96456 13.1752 3.20831 11 3.20831C8.84583 3.20831 7.00868 3.96313 5.48854 5.47276C3.9684 6.9824 3.20833 8.82481 3.20833 11C3.20833 13.1541 3.9684 14.9913 5.48854 16.5114C7.00868 18.0316 8.84965 18.7916 11.0115 18.7916ZM11.0634 6.87498C11.5253 6.87498 11.9319 7.0163 12.2833 7.29894C12.6347 7.58158 12.8104 7.9421 12.8104 8.38051C12.8104 8.78238 12.6909 9.13173 12.4518 9.42856C12.2128 9.72538 11.9427 10.0047 11.6417 10.2666C11.2903 10.5569 10.9847 10.8807 10.725 11.238C10.4653 11.5952 10.3354 11.9971 10.3354 12.4437C10.3354 12.6118 10.3996 12.7455 10.5279 12.8448C10.6562 12.9441 10.806 12.9937 10.9771 12.9937C11.1604 12.9937 11.3122 12.9326 11.4325 12.8104C11.5529 12.6882 11.6302 12.5354 11.6646 12.3521C11.7104 12.0312 11.8326 11.741 12.0312 11.4812C12.2299 11.2215 12.4608 10.9864 12.724 10.7758C13.1025 10.4669 13.4139 10.1062 13.6583 9.69373C13.9028 9.28123 14.025 8.83348 14.025 8.35049C14.025 7.58071 13.7385 6.93991 13.1656 6.4281C12.5927 5.9163 11.9132 5.6604 11.1271 5.6604C10.584 5.6604 10.0604 5.77498 9.55625 6.00415C9.05208 6.23331 8.63958 6.56942 8.31875 7.01248C8.2118 7.16526 8.16215 7.32949 8.16979 7.50519C8.17743 7.68088 8.24976 7.8222 8.38678 7.92915C8.5612 8.05137 8.74182 8.08956 8.92867 8.04373C9.11553 7.9979 9.27125 7.89095 9.39583 7.7229C9.59062 7.44938 9.83411 7.23968 10.1263 7.09379C10.4185 6.94792 10.7309 6.87498 11.0634 6.87498Z" fill="#7B68EE"/>
</svg>
