<svg width="22" height="22" viewBox="0 0 22 22" fill="none" xmlns="http://www.w3.org/2000/svg">
<path d="M11 20.1666C16.0626 20.1666 20.1667 16.0626 20.1667 11C20.1667 5.93737 16.0626 1.83331 11 1.83331C5.93738 1.83331 1.83333 5.93737 1.83333 11C1.83333 16.0626 5.93738 20.1666 11 20.1666Z" stroke="#7B68EE" stroke-width="1.5" stroke-linecap="round" stroke-linejoin="round"/>
<path d="M7.33334 2.75H8.25C6.4625 8.10333 6.4625 13.8967 8.25 19.25H7.33334" stroke="#7B68EE" stroke-width="1.5" stroke-linecap="round" stroke-linejoin="round"/>
<path d="M13.75 2.75C15.5375 8.10333 15.5375 13.8967 13.75 19.25" stroke="#7B68EE" stroke-width="1.5" stroke-linecap="round" stroke-linejoin="round"/>
<path d="M2.75 14.6667V13.75C8.10333 15.5375 13.8967 15.5375 19.25 13.75V14.6667" stroke="#7B68EE" stroke-width="1.5" stroke-linecap="round" stroke-linejoin="round"/>
<path d="M2.75 8.24999C8.10333 6.46249 13.8967 6.46249 19.25 8.24999" stroke="#7B68EE" stroke-width="1.5" stroke-linecap="round" stroke-linejoin="round"/>
</svg>
