<svg width="22" height="22" viewBox="0 0 22 22" fill="none" xmlns="http://www.w3.org/2000/svg">
<path d="M4.125 19.25C3.75833 19.25 3.4375 19.1125 3.1625 18.8375C2.8875 18.5625 2.75 18.2417 2.75 17.875V4.125C2.75 3.75833 2.8875 3.4375 3.1625 3.1625C3.4375 2.8875 3.75833 2.75 4.125 2.75H10.2896C10.4844 2.75 10.6477 2.81627 10.7794 2.9488C10.9112 3.08135 10.9771 3.24559 10.9771 3.44151C10.9771 3.63745 10.9112 3.80035 10.7794 3.93021C10.6477 4.06007 10.4844 4.125 10.2896 4.125H4.125V17.875H10.2896C10.4844 17.875 10.6477 17.9413 10.7794 18.0738C10.9112 18.2064 10.9771 18.3706 10.9771 18.5665C10.9771 18.7624 10.9112 18.9253 10.7794 19.0552C10.6477 19.1851 10.4844 19.25 10.2896 19.25H4.125ZM16.6146 11.6875H8.9375C8.74271 11.6875 8.57943 11.6212 8.44766 11.4887C8.31589 11.3561 8.25 11.1919 8.25 10.996C8.25 10.8001 8.31589 10.6372 8.44766 10.5073C8.57943 10.3774 8.74271 10.3125 8.9375 10.3125H16.5688L14.7125 8.45625C14.575 8.31875 14.5101 8.15833 14.5177 7.975C14.5253 7.79167 14.5979 7.63125 14.7354 7.49375C14.8729 7.35625 15.0372 7.2875 15.2281 7.2875C15.4191 7.2875 15.5833 7.35625 15.7208 7.49375L18.7688 10.5417C18.9063 10.6792 18.975 10.8396 18.975 11.0229C18.975 11.2063 18.9063 11.3667 18.7688 11.5042L15.7438 14.5292C15.6093 14.6667 15.4497 14.7316 15.2648 14.724C15.0799 14.7163 14.9158 14.6438 14.7723 14.5063C14.6408 14.3688 14.575 14.2045 14.575 14.0135C14.575 13.8226 14.6438 13.6583 14.7813 13.5208L16.6146 11.6875Z" fill="#7B68EE"/>
</svg>
