<svg width="22" height="22" viewBox="0 0 22 22" fill="none" xmlns="http://www.w3.org/2000/svg">
<path d="M20.1667 8.25005V13.7501C20.1667 16.0417 19.7083 17.6459 18.6817 18.6817L12.8333 12.8334L19.9192 5.74756C20.0842 6.47173 20.1667 7.29672 20.1667 8.25005Z" stroke="#7B68EE" stroke-width="1.5" stroke-linecap="round" stroke-linejoin="round"/>
<path d="M19.9192 5.74754L5.74748 19.9192C2.98832 19.2867 1.83333 17.38 1.83333 13.75V8.25004C1.83333 3.66671 3.66666 1.83337 8.25 1.83337H13.75C17.38 1.83337 19.2867 2.98838 19.9192 5.74754Z" stroke="#7B68EE" stroke-width="1.5" stroke-linecap="round" stroke-linejoin="round"/>
<path d="M18.6817 18.6817C17.6458 19.7084 16.0417 20.1667 13.75 20.1667H8.25001C7.29667 20.1667 6.47166 20.0842 5.7475 19.9192L12.8333 12.8334L18.6817 18.6817Z" stroke="#7B68EE" stroke-width="1.5" stroke-linecap="round" stroke-linejoin="round"/>
<path d="M5.72 7.31503C6.34333 4.6292 10.3767 4.6292 11 7.31503C11.3575 8.8917 10.3675 10.23 9.49666 11.055C8.86416 11.66 7.86501 11.66 7.22334 11.055C6.35251 10.23 5.35333 8.8917 5.72 7.31503Z" stroke="#7B68EE" stroke-width="1.5"/>
<path d="M8.33672 7.97506H8.34495" stroke="#7B68EE" stroke-width="2" stroke-linecap="round" stroke-linejoin="round"/>
</svg>
