<svg width="22" height="22" viewBox="0 0 22 22" fill="none" xmlns="http://www.w3.org/2000/svg">
<path d="M2.0992 7.13167V16.0508C2.0992 17.7925 3.3367 18.5075 4.84003 17.6458L6.9942 16.4175C7.4617 16.1517 8.24086 16.1242 8.7267 16.3717L13.5392 18.7825C14.025 19.0208 14.8042 19.0025 15.2717 18.7367L19.2409 16.4633C19.745 16.17 20.1667 15.455 20.1667 14.8683V5.94916C20.1667 4.2075 18.9292 3.4925 17.4259 4.35416L15.2717 5.5825C14.8042 5.84833 14.025 5.87583 13.5392 5.62833L8.7267 3.22666C8.24086 2.98833 7.4617 3.00666 6.9942 3.2725L3.02503 5.54583C2.5117 5.83916 2.0992 6.55416 2.0992 7.13167Z" stroke="#7B68EE" stroke-width="1.5" stroke-linecap="round" stroke-linejoin="round"/>
<path d="M7.84673 3.66669V15.5834" stroke="#7B68EE" stroke-width="1.5" stroke-linecap="round" stroke-linejoin="round"/>
<path d="M14.4191 6.06836V18.3334" stroke="#7B68EE" stroke-width="1.5" stroke-linecap="round" stroke-linejoin="round"/>
</svg>
