<svg width="22" height="22" viewBox="0 0 22 22" fill="none" xmlns="http://www.w3.org/2000/svg">
<path d="M11.0189 2.66764C7.98469 2.66764 5.51886 5.13348 5.51886 8.16764V10.8168C5.51886 11.376 5.28052 12.2285 4.99636 12.7051L3.94219 14.456C3.29136 15.5376 3.74052 16.7385 4.93219 17.1418C8.88302 18.4618 13.1455 18.4618 17.0964 17.1418C18.2055 16.7751 18.6914 15.4643 18.0864 14.456L17.0322 12.7051C16.7572 12.2285 16.5189 11.376 16.5189 10.8168V8.16764C16.5189 5.14264 14.0439 2.66764 11.0189 2.66764Z" stroke="#7B68EE" stroke-width="1.5" stroke-miterlimit="10" stroke-linecap="round"/>
<path d="M12.7142 2.93334C12.43 2.85084 12.1367 2.78667 11.8342 2.75C10.9542 2.64 10.1109 2.70417 9.32254 2.93334C9.58837 2.255 10.2484 1.77834 11.0184 1.77834C11.7884 1.77834 12.4484 2.255 12.7142 2.93334Z" stroke="#7B68EE" stroke-width="1.5" stroke-miterlimit="10" stroke-linecap="round" stroke-linejoin="round"/>
<path opacity="0.5" d="M13.7679 17.4717C13.7679 18.9842 12.5304 20.2217 11.0179 20.2217C10.2662 20.2217 9.56956 19.9101 9.07456 19.4151C8.57956 18.9201 8.2679 18.2234 8.2679 17.4717" stroke="#7B68EE" stroke-width="1.5" stroke-miterlimit="10"/>
</svg>
