<svg width="22" height="22" viewBox="0 0 22 22" fill="none" xmlns="http://www.w3.org/2000/svg">
<path d="M21.0825 16.4176C21.1008 17.1051 20.9175 17.7559 20.5875 18.3151C20.4041 18.6451 20.1566 18.9476 19.8816 19.1951C19.2491 19.7818 18.415 20.1393 17.4891 20.1668C16.1508 20.1943 14.9683 19.5068 14.3175 18.4526C13.9691 17.9118 13.7583 17.261 13.7491 16.5735C13.7216 15.4185 14.235 14.3734 15.06 13.6859C15.6833 13.1726 16.4716 12.8518 17.3333 12.8335C19.3591 12.7876 21.0366 14.3918 21.0825 16.4176Z" stroke="#7B68EE" stroke-width="1.5" stroke-miterlimit="10" stroke-linecap="round" stroke-linejoin="round"/>
<path d="M15.9863 16.5273L16.9122 17.4073L18.828 15.5556" stroke="#7B68EE" stroke-width="1.5" stroke-linecap="round" stroke-linejoin="round"/>
<path d="M2.90576 6.81997L10.9999 11.5041L19.0391 6.84744" stroke="#7B68EE" stroke-width="1.5" stroke-linecap="round" stroke-linejoin="round"/>
<path d="M11 19.809V11.4948" stroke="#7B68EE" stroke-width="1.5" stroke-linecap="round" stroke-linejoin="round"/>
<path d="M19.8097 8.40578V13.5941C19.8097 13.64 19.8097 13.6766 19.8006 13.7224C19.1589 13.1633 18.3339 12.8333 17.4172 12.8333C16.5556 12.8333 15.7581 13.1358 15.1256 13.64C14.2822 14.3091 13.7506 15.345 13.7506 16.5C13.7506 17.1875 13.943 17.8383 14.2822 18.3883C14.3647 18.535 14.4656 18.6725 14.5756 18.8008L12.8981 19.7266C11.8531 20.3133 10.1481 20.3133 9.10305 19.7266L4.20806 17.0133C3.09889 16.3991 2.19141 14.8591 2.19141 13.5941V8.40578C2.19141 7.14078 3.09889 5.6008 4.20806 4.98663L9.10305 2.27327C10.1481 1.68661 11.8531 1.68661 12.8981 2.27327L17.7931 4.98663C18.9022 5.6008 19.8097 7.14078 19.8097 8.40578Z" stroke="#7B68EE" stroke-width="1.5" stroke-linecap="round" stroke-linejoin="round"/>
</svg>
