<svg width="22" height="22" viewBox="0 0 22 22" fill="none" xmlns="http://www.w3.org/2000/svg">
<path d="M2.90576 6.81993L10.9999 11.5041L19.0391 6.8474" stroke="#7B68EE" stroke-width="1.5" stroke-linecap="round" stroke-linejoin="round"/>
<path d="M10.9999 19.8091V11.4949" stroke="#7B68EE" stroke-width="1.5" stroke-linecap="round" stroke-linejoin="round"/>
<path d="M19.8097 8.40586V13.5942C19.8097 13.6401 19.8097 13.6767 19.8006 13.7225C19.1589 13.1633 18.3339 12.8334 17.4172 12.8334C16.5556 12.8334 15.7581 13.1359 15.1256 13.64C14.2822 14.3092 13.7506 15.345 13.7506 16.5C13.7506 17.1875 13.943 17.8384 14.2822 18.3884C14.3647 18.535 14.4656 18.6726 14.5756 18.8009L12.8981 19.7267C11.8531 20.3134 10.1481 20.3134 9.10305 19.7267L4.20806 17.0134C3.09889 16.3992 2.19141 14.8592 2.19141 13.5942V8.40586C2.19141 7.14086 3.09889 5.60088 4.20806 4.98671L9.10305 2.27336C10.1481 1.68669 11.8531 1.68669 12.8981 2.27336L17.7931 4.98671C18.9022 5.60088 19.8097 7.14086 19.8097 8.40586Z" stroke="#7B68EE" stroke-width="1.5" stroke-linecap="round" stroke-linejoin="round"/>
<path d="M21.0833 16.5C21.0833 17.1875 20.8908 17.8384 20.5517 18.3884C20.3592 18.7184 20.1117 19.0117 19.8275 19.25C19.1858 19.8275 18.3425 20.1667 17.4167 20.1667C16.0783 20.1667 14.9142 19.4517 14.2817 18.3884C13.9425 17.8384 13.75 17.1875 13.75 16.5C13.75 15.345 14.2817 14.3092 15.125 13.64C15.7575 13.1359 16.555 12.8334 17.4167 12.8334C19.4425 12.8334 21.0833 14.4742 21.0833 16.5Z" stroke="#7B68EE" stroke-width="1.5" stroke-miterlimit="10" stroke-linecap="round" stroke-linejoin="round"/>
<path d="M18.3967 17.453L16.4534 15.5188" stroke="#7B68EE" stroke-width="1.5" stroke-miterlimit="10" stroke-linecap="round" stroke-linejoin="round"/>
<path d="M18.3789 15.5466L16.4355 17.4808" stroke="#7B68EE" stroke-width="1.5" stroke-miterlimit="10" stroke-linecap="round" stroke-linejoin="round"/>
</svg>
