<svg width="22" height="22" viewBox="0 0 22 22" fill="none" xmlns="http://www.w3.org/2000/svg">
<path d="M2.90576 6.81996L10.9999 11.5041L19.0391 6.84743" stroke="#7B68EE" stroke-width="1.5" stroke-linecap="round" stroke-linejoin="round"/>
<path d="M10.9999 19.8091V11.4949" stroke="#7B68EE" stroke-width="1.5" stroke-linecap="round" stroke-linejoin="round"/>
<path d="M19.8097 8.40583V13.5942C19.8097 13.64 19.8097 13.6767 19.8006 13.7225C19.1589 13.1633 18.3339 12.8333 17.4172 12.8333C16.5556 12.8333 15.7581 13.1359 15.1256 13.64C14.2822 14.3092 13.7506 15.345 13.7506 16.5C13.7506 17.1875 13.943 17.8383 14.2822 18.3883C14.3647 18.535 14.4656 18.6725 14.5756 18.8009L12.8981 19.7267C11.8531 20.3134 10.1481 20.3134 9.10305 19.7267L4.20806 17.0133C3.09889 16.3992 2.19141 14.8592 2.19141 13.5942V8.40583C2.19141 7.14083 3.09889 5.60085 4.20806 4.98668L9.10305 2.27333C10.1481 1.68666 11.8531 1.68666 12.8981 2.27333L17.7931 4.98668C18.9022 5.60085 19.8097 7.14083 19.8097 8.40583Z" stroke="#7B68EE" stroke-width="1.5" stroke-linecap="round" stroke-linejoin="round"/>
<path d="M21.0833 16.5C21.0833 17.6 20.5975 18.5808 19.8367 19.25C19.1858 19.8183 18.3425 20.1667 17.4167 20.1667C15.3908 20.1667 13.75 18.5258 13.75 16.5C13.75 15.345 14.2817 14.3092 15.125 13.64C15.7575 13.1358 16.555 12.8333 17.4167 12.8333C19.4425 12.8333 21.0833 14.4742 21.0833 16.5Z" stroke="#7B68EE" stroke-width="1.5" stroke-miterlimit="10" stroke-linecap="round" stroke-linejoin="round"/>
<path d="M17.6458 15.3542V16.7292L16.5 17.4167" stroke="#7B68EE" stroke-width="1.5" stroke-miterlimit="10" stroke-linecap="round" stroke-linejoin="round"/>
</svg>
