<svg width="22" height="22" viewBox="0 0 22 22" fill="none" xmlns="http://www.w3.org/2000/svg">
<path d="M5.04167 20.1667C4.66355 20.1667 4.33985 20.0321 4.07058 19.7628C3.80131 19.4935 3.66667 19.1698 3.66667 18.7917V8.84585C3.66667 8.46773 3.80131 8.14403 4.07058 7.87476C4.33985 7.60549 4.66355 7.47085 5.04167 7.47085H6.64584V5.27085C6.64584 4.0662 7.07061 3.03934 7.92014 2.19028C8.76968 1.34122 9.79711 0.916687 11.0024 0.916687C12.2078 0.916687 13.2344 1.34122 14.0823 2.19028C14.9302 3.03934 15.3542 4.0662 15.3542 5.27085V7.47085H16.9583C17.3365 7.47085 17.6602 7.60549 17.9294 7.87476C18.1987 8.14403 18.3333 8.46773 18.3333 8.84585V18.7917C18.3333 19.1698 18.1987 19.4935 17.9294 19.7628C17.6602 20.0321 17.3365 20.1667 16.9583 20.1667H5.04167ZM5.04167 18.7917H16.9583V8.84585H5.04167V18.7917ZM11.0039 15.5834C11.4902 15.5834 11.9052 15.4151 12.249 15.0785C12.5927 14.7419 12.7646 14.3373 12.7646 13.8646C12.7646 13.4063 12.5914 12.99 12.2451 12.6156C11.8988 12.2413 11.4825 12.0542 10.9962 12.0542C10.5098 12.0542 10.0948 12.2413 9.75105 12.6156C9.4073 12.99 9.23542 13.4101 9.23542 13.8761C9.23542 14.342 9.40858 14.7431 9.7549 15.0792C10.1012 15.4153 10.5175 15.5834 11.0039 15.5834ZM8.02084 7.47085H13.9792V5.27085C13.9792 4.4433 13.6898 3.73989 13.111 3.16062C12.5323 2.58133 11.8295 2.29169 11.0027 2.29169C10.1759 2.29169 9.47223 2.58133 8.89167 3.16062C8.31112 3.73989 8.02084 4.4433 8.02084 5.27085V7.47085Z" fill="#7B68EE"/>
</svg>
