<svg width="22" height="22" viewBox="0 0 22 22" fill="none" xmlns="http://www.w3.org/2000/svg">
<path d="M8.39628 9.96417C8.30461 9.955 8.19461 9.955 8.09378 9.96417C5.91211 9.89084 4.17961 8.10334 4.17961 5.90334C4.17961 3.6575 5.99461 1.83334 8.24961 1.83334C10.4954 1.83334 12.3196 3.6575 12.3196 5.90334C12.3104 8.10334 10.5779 9.89084 8.39628 9.96417Z" stroke="#7B68EE" stroke-width="1.5" stroke-linecap="round" stroke-linejoin="round"/>
<path opacity="0.5" d="M15.0427 3.66666C16.8211 3.66666 18.2511 5.10583 18.2511 6.875C18.2511 8.6075 16.8761 10.0192 15.1619 10.0833C15.0886 10.0742 15.0061 10.0742 14.9236 10.0833" stroke="#7B68EE" stroke-width="1.5" stroke-linecap="round" stroke-linejoin="round"/>
<path d="M3.81309 13.3467C1.59475 14.8317 1.59475 17.2517 3.81309 18.7275C6.33392 20.4142 10.4681 20.4142 12.9889 18.7275C15.2073 17.2425 15.2073 14.8225 12.9889 13.3467C10.4773 11.6692 6.34309 11.6692 3.81309 13.3467Z" stroke="#7B68EE" stroke-width="1.5" stroke-linecap="round" stroke-linejoin="round"/>
<path opacity="0.5" d="M16.8116 18.3333C17.4716 18.1958 18.095 17.93 18.6083 17.5358C20.0383 16.4633 20.0383 14.6942 18.6083 13.6217C18.1041 13.2367 17.49 12.98 16.8391 12.8333" stroke="#7B68EE" stroke-width="1.5" stroke-linecap="round" stroke-linejoin="round"/>
</svg>
