<svg width="22" height="22" viewBox="0 0 22 22" fill="none" xmlns="http://www.w3.org/2000/svg">
<g clip-path="url(#clip0_1_158)">
<path d="M15.8125 21.0834C15.6292 21.0834 15.4688 21.0154 15.3313 20.8795C15.1938 20.7436 15.125 20.5793 15.125 20.3868C15.125 20.1942 15.1909 20.033 15.3227 19.9031C15.4544 19.7733 15.6177 19.7084 15.8125 19.7084C16.9125 19.7084 17.8368 19.3302 18.5854 18.574C19.334 17.8177 19.7083 16.8972 19.7083 15.8125C19.7083 15.6139 19.7747 15.4497 19.9075 15.3198C20.0402 15.19 20.2006 15.125 20.3887 15.125C20.5768 15.125 20.7396 15.1921 20.8771 15.3262C21.0146 15.4604 21.0833 15.6225 21.0833 15.8125C21.0833 17.2792 20.5694 18.5243 19.5415 19.5479C18.5135 20.5715 17.2706 21.0834 15.8125 21.0834ZM1.60417 6.89794C1.41413 6.89794 1.25203 6.82919 1.11788 6.69169C0.983741 6.55419 0.916672 6.39377 0.916672 6.21044C0.916672 4.74605 1.43063 3.49766 2.45855 2.46528C3.48647 1.43289 4.72945 0.916687 6.1875 0.916687C6.38389 0.916687 6.55138 0.985437 6.69 1.12294C6.82861 1.26044 6.89792 1.42322 6.89792 1.61129C6.89792 1.79938 6.83299 1.95979 6.70313 2.09254C6.57327 2.2253 6.40903 2.29169 6.21042 2.29169C5.13276 2.29169 4.21022 2.66981 3.4428 3.42606C2.67538 4.18231 2.29167 5.1028 2.29167 6.18752C2.29167 6.3888 2.22579 6.55753 2.09402 6.6937C1.96224 6.82986 1.79896 6.89794 1.60417 6.89794ZM17.2333 4.28544C17.3708 4.42294 17.4396 4.58335 17.4396 4.76669C17.4396 4.95002 17.3708 5.11044 17.2333 5.24794L11.3896 11.0917C11.2521 11.2292 11.0909 11.2948 10.906 11.2884C10.7212 11.282 10.5615 11.2088 10.4271 11.0688C10.2896 10.9343 10.2208 10.7747 10.2208 10.5898C10.2208 10.405 10.2896 10.2438 10.4271 10.1063L16.2708 4.28544C16.4083 4.14794 16.5688 4.07919 16.7521 4.07919C16.9354 4.07919 17.0958 4.14794 17.2333 4.28544ZM18.975 7.30682C19.1125 7.4419 19.1813 7.60232 19.1813 7.78807C19.1813 7.97381 19.1125 8.13544 18.975 8.27294L13.7729 13.475C13.6354 13.6125 13.475 13.6775 13.2917 13.6698C13.1083 13.6622 12.9479 13.5926 12.8104 13.4611C12.6729 13.3176 12.6042 13.1542 12.6042 12.9709C12.6042 12.7875 12.6729 12.6271 12.8104 12.4896L17.9896 7.31044C18.1281 7.17294 18.2926 7.10419 18.4831 7.10419C18.6735 7.10419 18.8375 7.17173 18.975 7.30682ZM4.46875 17.4396C3.07848 16.0493 2.37952 14.384 2.37188 12.4438C2.36424 10.5035 3.05556 8.83821 4.44584 7.44794L6.76042 5.13335C6.89792 4.99585 7.05834 4.9271 7.24167 4.9271C7.425 4.9271 7.58542 4.99585 7.72292 5.13335L8.20417 5.6146C8.3875 5.79794 8.53646 6.01183 8.65105 6.25627C8.76563 6.50071 8.83056 6.72988 8.84584 6.94377L12.5813 3.18544C12.7198 3.04794 12.8843 2.97919 13.0747 2.97919C13.2652 2.97919 13.4292 3.04834 13.5667 3.18665C13.7042 3.32495 13.7729 3.48918 13.7729 3.67936C13.7729 3.86952 13.7042 4.03335 13.5667 4.17085L8.91459 8.82294L7.425 10.3125L8.02084 10.9084C8.6625 11.55 8.97188 12.3177 8.94896 13.2115C8.92605 14.1052 8.59296 14.8737 7.9497 15.517L7.92917 15.5375C7.79167 15.675 7.63125 15.74 7.44792 15.7323C7.26459 15.7247 7.10417 15.6551 6.96667 15.5236C6.82917 15.3801 6.76042 15.2159 6.76042 15.0311C6.76042 14.8462 6.82917 14.6865 6.96667 14.5521L6.98959 14.5292C7.37153 14.1472 7.56632 13.7004 7.57396 13.1886C7.5816 12.6768 7.40209 12.2375 7.03542 11.8709L5.95834 10.7938C5.82084 10.6552 5.75209 10.4908 5.75209 10.3003C5.75209 10.1098 5.82084 9.94585 5.95834 9.80835L7.24167 8.54794C7.50139 8.28821 7.63125 7.96356 7.63125 7.57398C7.63125 7.18439 7.50139 6.85974 7.24167 6.60002L5.40834 8.43335C4.29306 9.54863 3.73924 10.8854 3.74688 12.4438C3.75452 14.0021 4.31598 15.3389 5.43125 16.4542C6.56181 17.5847 7.91389 18.1615 9.4875 18.1844C11.0611 18.2073 12.4056 17.6611 13.5208 16.5459L19.0438 11.0229C19.1823 10.8854 19.3468 10.8167 19.5372 10.8167C19.7277 10.8167 19.8917 10.8842 20.0292 11.0193C20.1667 11.1544 20.2354 11.3148 20.2354 11.5006C20.2354 11.6863 20.1667 11.8479 20.0292 11.9854L14.5063 17.5084C13.116 18.8986 11.4431 19.5823 9.4875 19.5594C7.53195 19.5365 5.85903 18.8299 4.46875 17.4396Z" fill="#7B68EE"/>
</g>
<defs>
<clipPath id="clip0_1_158">
<rect width="22" height="22" fill="white"/>
</clipPath>
</defs>
</svg>
