<svg width="22" height="22" viewBox="0 0 22 22" fill="none" xmlns="http://www.w3.org/2000/svg">
<path d="M11 16.9584C14.2907 16.9584 16.9583 14.2907 16.9583 11C16.9583 7.70932 14.2907 5.04169 11 5.04169C7.70931 5.04169 5.04167 7.70932 5.04167 11C5.04167 14.2907 7.70931 16.9584 11 16.9584Z" stroke="#7B68EE" stroke-width="1.5" stroke-linecap="round" stroke-linejoin="round"/>
<path d="M17.545 17.545L17.4258 17.4258M17.4258 4.57415L17.545 4.45498L17.4258 4.57415ZM4.455 17.545L4.57416 17.4258L4.455 17.545ZM11 1.90665V1.83331V1.90665ZM11 20.1666V20.0933V20.1666ZM1.90666 11H1.83333H1.90666ZM20.1667 11H20.0933H20.1667ZM4.57416 4.57415L4.455 4.45498L4.57416 4.57415Z" stroke="#7B68EE" stroke-width="2" stroke-linecap="round" stroke-linejoin="round"/>
</svg>
