<svg width="22" height="22" viewBox="0 0 22 22" fill="none" xmlns="http://www.w3.org/2000/svg">
<path d="M19.25 5.48165C16.1975 5.17915 13.1267 5.02332 10.065 5.02332C8.25 5.02332 6.435 5.11498 4.62 5.29832L2.75 5.48165" stroke="#7B68EE" stroke-width="1.5" stroke-linecap="round" stroke-linejoin="round"/>
<path d="M19.25 5.48165C16.1975 5.17915 13.1267 5.02332 10.065 5.02332C8.25 5.02332 6.435 5.11498 4.62 5.29832L2.75 5.48165" stroke="#7B68EE" stroke-width="1.5" stroke-linecap="round" stroke-linejoin="round"/>
<path d="M19.25 5.48165C16.1975 5.17915 13.1267 5.02332 10.065 5.02332C8.25 5.02332 6.435 5.11498 4.62 5.29832L2.75 5.48165" stroke="#7B68EE" stroke-width="1.5" stroke-linecap="round" stroke-linejoin="round"/>
<path d="M7.79167 4.55581L7.99334 3.35498C8.14001 2.48415 8.25 1.83331 9.79917 1.83331H12.2008C13.75 1.83331 13.8692 2.52081 14.0067 3.36415L14.2083 4.55581" stroke="#7B68EE" stroke-width="1.5" stroke-linecap="round" stroke-linejoin="round"/>
<path d="M7.79167 4.55581L7.99334 3.35498C8.14001 2.48415 8.25 1.83331 9.79917 1.83331H12.2008C13.75 1.83331 13.8692 2.52081 14.0067 3.36415L14.2083 4.55581" stroke="#7B68EE" stroke-width="1.5" stroke-linecap="round" stroke-linejoin="round"/>
<path d="M7.79167 4.55581L7.99334 3.35498C8.14001 2.48415 8.25 1.83331 9.79917 1.83331H12.2008C13.75 1.83331 13.8692 2.52081 14.0067 3.36415L14.2083 4.55581" stroke="#7B68EE" stroke-width="1.5" stroke-linecap="round" stroke-linejoin="round"/>
<path d="M17.2795 8.37799L16.6837 17.6088C16.5829 19.048 16.5004 20.1663 13.9429 20.1663H8.05786C5.50036 20.1663 5.41786 19.048 5.31702 17.6088L4.72119 8.37799" stroke="#7B68EE" stroke-width="1.5" stroke-linecap="round" stroke-linejoin="round"/>
<path d="M17.2795 8.37799L16.6837 17.6088C16.5829 19.048 16.5004 20.1663 13.9429 20.1663H8.05786C5.50036 20.1663 5.41786 19.048 5.31702 17.6088L4.72119 8.37799" stroke="#7B68EE" stroke-width="1.5" stroke-linecap="round" stroke-linejoin="round"/>
<path d="M17.2795 8.37799L16.6837 17.6088C16.5829 19.048 16.5004 20.1663 13.9429 20.1663H8.05786C5.50036 20.1663 5.41786 19.048 5.31702 17.6088L4.72119 8.37799" stroke="#7B68EE" stroke-width="1.5" stroke-linecap="round" stroke-linejoin="round"/>
<path d="M9.46924 15.125H12.5217" stroke="#7B68EE" stroke-width="1.5" stroke-linecap="round" stroke-linejoin="round"/>
<path d="M9.46924 15.125H12.5217" stroke="#7B68EE" stroke-width="1.5" stroke-linecap="round" stroke-linejoin="round"/>
<path d="M9.46924 15.125H12.5217" stroke="#7B68EE" stroke-width="1.5" stroke-linecap="round" stroke-linejoin="round"/>
<path d="M8.70833 11.4583H13.2917" stroke="#7B68EE" stroke-width="1.5" stroke-linecap="round" stroke-linejoin="round"/>
</svg>
