<svg width="22" height="22" viewBox="0 0 22 22" fill="none" xmlns="http://www.w3.org/2000/svg">
<path d="M13.2371 17.4627L14.6304 18.856L17.4171 16.0694" stroke="#7B68EE" stroke-width="1.5" stroke-linecap="round" stroke-linejoin="round"/>
<path d="M11.1463 9.96419C11.0547 9.95503 10.9447 9.95503 10.8438 9.96419C8.66218 9.89086 6.92968 8.10336 6.92968 5.90336C6.92051 3.65753 8.74468 1.83336 10.9905 1.83336C13.2363 1.83336 15.0605 3.65753 15.0605 5.90336C15.0605 8.10336 13.3188 9.89086 11.1463 9.96419Z" stroke="#7B68EE" stroke-width="1.5" stroke-linecap="round" stroke-linejoin="round"/>
<path d="M10.9909 19.9925C9.32254 19.9925 7.66337 19.5708 6.39837 18.7275C4.18004 17.2425 4.18004 14.8225 6.39837 13.3466C8.9192 11.66 13.0534 11.66 15.5742 13.3466" stroke="#7B68EE" stroke-width="1.5" stroke-linecap="round" stroke-linejoin="round"/>
</svg>
