<svg width="22" height="22" viewBox="0 0 22 22" fill="none" xmlns="http://www.w3.org/2000/svg">
<path d="M16.8758 16.5824L14.2908 19.1674" stroke="#7B68EE" stroke-width="1.5" stroke-linecap="round" stroke-linejoin="round"/>
<path d="M16.8758 19.1674L14.2908 16.5824" stroke="#7B68EE" stroke-width="1.5" stroke-linecap="round" stroke-linejoin="round"/>
<path d="M11.1463 9.96418C11.0546 9.95501 10.9446 9.95501 10.8438 9.96418C8.66214 9.89084 6.92964 8.10334 6.92964 5.90334C6.92964 3.65751 8.74464 1.83334 10.9996 1.83334C13.2455 1.83334 15.0696 3.65751 15.0696 5.90334C15.0605 8.10334 13.328 9.89084 11.1463 9.96418Z" stroke="#7B68EE" stroke-width="1.5" stroke-linecap="round" stroke-linejoin="round"/>
<path d="M11.0001 19.9925C9.33177 19.9925 7.6726 19.5708 6.4076 18.7275C4.18927 17.2425 4.18927 14.8225 6.4076 13.3466C8.92843 11.66 13.0626 11.66 15.5834 13.3466" stroke="#7B68EE" stroke-width="1.5" stroke-linecap="round" stroke-linejoin="round"/>
</svg>
