<svg width="22" height="22" viewBox="0 0 22 22" fill="none" xmlns="http://www.w3.org/2000/svg">
<path d="M6.32496 18.8833C7.69996 19.7083 9.34996 20.1666 11 20.1666C16.0416 20.1666 20.1666 16.0416 20.1666 11C20.1666 5.95831 16.0416 1.83331 11 1.83331C5.9583 1.83331 1.8333 5.95831 1.8333 11C1.8333 12.65 2.29163 14.2083 3.02496 15.5833L2.27374 18.4726C2.07902 19.2216 2.77222 19.8984 3.51628 19.6858L6.32496 18.8833Z" stroke="#7B68EE" stroke-width="1.5" stroke-miterlimit="10" stroke-linecap="round" stroke-linejoin="round"/>
<path d="M15.125 13.6111C15.125 13.7596 15.092 13.9122 15.0217 14.0607C14.9515 14.2092 14.8606 14.3495 14.7408 14.4815C14.5384 14.7043 14.3153 14.8651 14.0633 14.9683C13.8154 15.0714 13.5469 15.125 13.2577 15.125C12.8363 15.125 12.386 15.026 11.9109 14.8239C11.4358 14.6218 10.9608 14.3495 10.4898 14.0071C10.0147 13.6606 9.56441 13.277 9.13476 12.8521C8.70925 12.4231 8.32505 11.9735 7.98216 11.5033C7.6434 11.033 7.37074 10.5628 7.17245 10.0966C6.97415 9.62638 6.875 9.17675 6.875 8.74775C6.875 8.46725 6.92457 8.19913 7.02372 7.95163C7.12287 7.7 7.27986 7.469 7.49881 7.26275C7.76321 7.00288 8.05239 6.875 8.3581 6.875C8.47377 6.875 8.58945 6.89975 8.69273 6.94925C8.80014 6.99875 8.89516 7.073 8.96952 7.18025L9.92795 8.52913C10.0023 8.63225 10.056 8.72712 10.0932 8.81787C10.1304 8.9045 10.151 8.99113 10.151 9.0695C10.151 9.1685 10.1221 9.2675 10.0643 9.36237C10.0106 9.45725 9.93209 9.55625 9.83294 9.65525L9.51897 9.98112C9.47352 10.0265 9.45287 10.0801 9.45287 10.1461C9.45287 10.1791 9.457 10.208 9.46526 10.241C9.47765 10.274 9.49005 10.2987 9.49831 10.3235C9.57267 10.4596 9.70074 10.637 9.88251 10.8515C10.0684 11.066 10.2667 11.2846 10.4815 11.5033C10.7046 11.7219 10.9194 11.924 11.1384 12.1096C11.3532 12.2911 11.5309 12.4149 11.6713 12.4891C11.692 12.4974 11.7168 12.5097 11.7457 12.5221C11.7787 12.5345 11.8118 12.5386 11.849 12.5386C11.9192 12.5386 11.9729 12.5139 12.0183 12.4685L12.3323 12.1591C12.4356 12.056 12.5347 11.9776 12.6298 11.9281C12.7248 11.8704 12.8198 11.8415 12.9231 11.8415C13.0016 11.8415 13.0842 11.858 13.1751 11.8951C13.266 11.9322 13.361 11.9859 13.4643 12.056L14.8317 13.0254C14.9391 13.0996 15.0135 13.1862 15.0589 13.2894C15.1002 13.3925 15.125 13.4956 15.125 13.6111Z" stroke="#7B68EE" stroke-width="1.5" stroke-miterlimit="10"/>
</svg>
